G04 EasyPC Gerber Version 21.0.3 Build 4286 *
%FSLAX35Y35*%
%MOIN*%
%ADD27R,0.08677X0.08677*%
%ADD75C,0.05331*%
%ADD72C,0.06906*%
%ADD29C,0.07000*%
%ADD73C,0.07299*%
%ADD28C,0.08677*%
%ADD74C,0.08972*%
%ADD76C,0.14386*%
%ADD26C,0.38402*%
X0Y0D02*
D02*
D26*
X101023Y63801D03*
Y335454D03*
X275600Y63801D03*
X276387Y326667D03*
X511820Y121943D03*
X530324Y335454D03*
D02*
D27*
X336230Y60132D03*
D02*
D28*
Y70132D03*
X346230Y60132D03*
Y70132D03*
X356230Y60132D03*
Y70132D03*
X366230Y60132D03*
Y70132D03*
X376230Y60132D03*
Y70132D03*
X386230Y60132D03*
Y70132D03*
X396230Y60132D03*
Y70132D03*
X406230Y60132D03*
Y70132D03*
X416230Y60132D03*
Y70132D03*
X426230Y60132D03*
Y70132D03*
X436230Y60132D03*
Y70132D03*
X446230Y60132D03*
Y70132D03*
X456230Y60132D03*
Y70132D03*
X466230Y60132D03*
Y70132D03*
X476230Y60132D03*
Y70132D03*
D02*
D29*
X360246Y253071D03*
Y262888D03*
D02*
D72*
X76531Y291784D03*
X86531Y291852D03*
X96531Y291784D03*
D02*
D73*
X109393Y103676D03*
X119393Y103608D03*
X129393Y103676D03*
X139380D03*
D02*
D74*
X99714Y208829D03*
Y234419D03*
X313691Y212222D03*
Y237813D03*
D02*
D75*
X284261Y128242D03*
X287411Y138478D03*
X290561Y128242D03*
X293710Y138478D03*
X296860Y128242D03*
D02*
D76*
X276191Y133360D03*
X304931D03*
X0Y0D02*
M02*
