G04 EasyPC Gerber Version 21.0.3 Build 4286 *
%FSLAX35Y35*%
%MOIN*%
%ADD78C,0.00500*%
%ADD77C,0.10000*%
X0Y0D02*
D02*
D77*
X5128Y252652D03*
X15364Y265644D03*
X21663Y250289D03*
X25994Y221156D03*
X26387Y230604D03*
X33474Y138478D03*
X41742Y255407D03*
X46072Y140663D03*
X46466Y109344D03*
X47254Y103833D03*
Y290447D03*
X47647Y121549D03*
X48041Y113675D03*
Y152652D03*
X48435Y134148D03*
Y167219D03*
X48828Y93203D03*
X51191Y144778D03*
Y185722D03*
X63395Y240427D03*
X75600Y145565D03*
X76531Y291784D03*
X77962Y168222D03*
X78356Y114856D03*
X78750Y160132D03*
X83474Y142258D03*
X86531Y291852D03*
X96531Y291784D03*
X99714Y208829D03*
Y234419D03*
X101023Y63801D03*
Y335454D03*
X105915Y142258D03*
X109393Y103676D03*
X109852Y137297D03*
Y152258D03*
Y167219D03*
X116545Y123518D03*
X119301Y217219D03*
Y242022D03*
X119393Y103608D03*
X122844Y162258D03*
X127569Y137258D03*
X129393Y103676D03*
X130324Y147140D03*
Y157376D03*
Y167219D03*
X133474Y188085D03*
X137411Y225656D03*
X138592Y123911D03*
X138986Y204620D03*
X139380Y103676D03*
X141348Y288872D03*
X142923Y63675D03*
X143317Y51077D03*
X143710Y162100D03*
X144301Y177455D03*
X146466Y142258D03*
X147254Y148321D03*
X149222Y329030D03*
X155521Y170368D03*
X158671Y311707D03*
X161033Y165644D03*
X162383Y119581D03*
X164970Y90841D03*
X166151Y186904D03*
X168513Y226667D03*
X169301Y289266D03*
X170482Y218400D03*
X171269Y208163D03*
X171466Y254620D03*
X173238Y91234D03*
Y106589D03*
X173631Y168400D03*
X176387Y227848D03*
X177962Y151470D03*
Y199502D03*
X179931Y321549D03*
X181702Y304423D03*
X182687Y189266D03*
X187411Y289266D03*
X189183Y255407D03*
X190561Y184935D03*
X190954Y189266D03*
X191151Y251470D03*
X193120Y246746D03*
X195088Y242809D03*
X196072Y103439D03*
X196860Y346352D03*
X198041Y295959D03*
X200009Y64463D03*
X200403Y51470D03*
X201584Y151470D03*
X204734Y110132D03*
X205521Y268793D03*
Y294778D03*
X206899Y232179D03*
X207883Y225093D03*
X211033Y203833D03*
X213002Y252258D03*
X214576Y289659D03*
X216939Y112888D03*
X219301Y255801D03*
X221663Y50683D03*
X226584Y266431D03*
X228356Y190053D03*
Y289266D03*
X228750Y218793D03*
X229143Y205801D03*
Y269974D03*
X229537Y138872D03*
X230521Y184541D03*
X232687Y81392D03*
Y206589D03*
X233080Y182967D03*
Y202848D03*
X233868Y158557D03*
X234655Y194384D03*
Y255801D03*
X235443Y208951D03*
X236230Y214659D03*
Y344778D03*
X236624Y200289D03*
Y227848D03*
X237411Y231785D03*
X238198Y187691D03*
Y211313D03*
X239380Y221746D03*
X244104Y113675D03*
X244498Y123124D03*
Y126667D03*
X244891Y119187D03*
X248828Y101077D03*
X250009Y262494D03*
Y271943D03*
X252372Y162494D03*
Y289266D03*
X253553Y176274D03*
X253946Y151470D03*
X255521Y140053D03*
X256702Y219187D03*
X259852Y168400D03*
X260246Y222337D03*
X262214Y124305D03*
X266545Y179817D03*
X267726Y153439D03*
X268120Y203045D03*
X270088Y222337D03*
X270876Y116825D03*
X274025Y242415D03*
X275600Y63801D03*
X275994Y232179D03*
X276191Y133360D03*
X276387Y326667D03*
X278356Y219187D03*
X279931Y182967D03*
X280521Y240053D03*
X281506Y150683D03*
X281899Y158951D03*
X283474Y190841D03*
X283868Y205801D03*
X284261Y128242D03*
X284655Y211313D03*
Y273518D03*
X285443Y203045D03*
X287411Y138478D03*
X288592Y240053D03*
X290561Y128242D03*
X292135Y155801D03*
Y167612D03*
X293710Y138478D03*
X296860Y128242D03*
X300403Y196746D03*
X300797Y273518D03*
X301191Y185329D03*
X304931Y133360D03*
X307096Y168006D03*
X307883Y187860D03*
X313002Y178636D03*
X313691Y212222D03*
Y237813D03*
X313789Y90841D03*
X314970Y150683D03*
X315364Y279030D03*
X318513Y101864D03*
X321269Y160526D03*
X324025Y331392D03*
X324813Y322730D03*
X326387Y253439D03*
X327569Y300683D03*
X334261Y330604D03*
X334655Y294778D03*
X335443Y95171D03*
X335836Y178636D03*
X336230Y60132D03*
Y70132D03*
X336624Y154226D03*
X338986Y301470D03*
X340167Y90447D03*
X346230Y60132D03*
Y70132D03*
X356230Y60132D03*
Y70132D03*
X357883Y106982D03*
X360246Y253071D03*
Y262888D03*
X360639Y162494D03*
X363002Y245171D03*
X363395Y118006D03*
X366230Y60132D03*
Y70132D03*
X368120Y180604D03*
X372057Y269581D03*
X376230Y60132D03*
Y70132D03*
X376387Y117612D03*
X386230Y60132D03*
Y70132D03*
X389773Y132967D03*
X390167Y180604D03*
X392529Y266825D03*
X396230Y60132D03*
Y70132D03*
X397254Y120762D03*
X402372Y303833D03*
X406230Y60132D03*
Y70132D03*
X410639Y266825D03*
X415167Y294778D03*
X416230Y60132D03*
Y70132D03*
X416939Y117219D03*
X418907Y199896D03*
X419694Y138478D03*
X425049Y99896D03*
X426230Y60132D03*
Y70132D03*
X436230Y60132D03*
Y70132D03*
Y195959D03*
X437017Y122337D03*
X443710Y155014D03*
X446230Y60132D03*
Y70132D03*
X456230Y60132D03*
Y70132D03*
X460639Y127455D03*
X466230Y60132D03*
Y70132D03*
X473631Y203833D03*
X474025Y117356D03*
X474419Y197140D03*
X474813Y210526D03*
X476230Y60132D03*
Y70132D03*
X482687Y86904D03*
X483868Y334541D03*
X492923Y287691D03*
X493317Y335722D03*
X506309Y153439D03*
X511820Y121943D03*
X530324Y335454D03*
X537805Y242022D03*
X543317Y156195D03*
D02*
D78*
X16690Y258589D02*
Y262339D01*
X15128D02*
X18253D01*
X26926Y271581D02*
Y275331D01*
X25364D02*
X28489D01*
X33226Y256227D02*
Y259977D01*
X31663D02*
X34788D01*
X36931Y227093D02*
X38181D01*
X37556D02*
Y230843D01*
X36931D02*
X38181D01*
X37325Y236542D02*
X38575D01*
X37950D02*
Y240292D01*
X37325D02*
X38575D01*
X45037Y144416D02*
Y148166D01*
X43474D02*
X46599D01*
X53304Y261345D02*
Y265095D01*
X51742D02*
X54867D01*
X57635Y146601D02*
Y150351D01*
X56072D02*
X59198D01*
X58029Y115282D02*
Y119032D01*
X56466D02*
X59591D01*
X58191Y109770D02*
X59441D01*
X58816D02*
Y113520D01*
X58191D02*
X59441D01*
X58816Y296384D02*
Y300134D01*
X57254D02*
X60379D01*
X58585Y127487D02*
X59835D01*
X59210D02*
Y131237D01*
X58585D02*
X59835D01*
X59604Y119613D02*
Y123363D01*
X58041D02*
X61166D01*
X58978Y158589D02*
X60228D01*
X59604D02*
Y162339D01*
X58978D02*
X60228D01*
X59372Y140085D02*
X60622D01*
X59997D02*
Y143835D01*
X59372D02*
X60622D01*
X59372Y173156D02*
X60622D01*
X59997D02*
Y176906D01*
X59372D02*
X60622D01*
X59766Y99140D02*
X61016D01*
X60391D02*
Y102890D01*
X59766D02*
X61016D01*
X62753Y150715D02*
Y154465D01*
X61191D02*
X64316D01*
X62753Y191660D02*
Y195410D01*
X61191D02*
X64316D01*
X74333Y246365D02*
X75583D01*
X74958D02*
Y250115D01*
X74333D02*
X75583D01*
X87163Y151502D02*
Y155252D01*
X85600D02*
X88725D01*
X86531Y297722D02*
Y301472D01*
X88719*
X89344Y301159*
X89657Y300534*
X89344Y299909*
X88719Y299597*
X86531*
X89525Y174160D02*
Y177910D01*
X87962D02*
X91087D01*
X89919Y120794D02*
Y124544D01*
X88356D02*
X91481D01*
X90312Y166069D02*
Y169819D01*
X88750D02*
X91875D01*
X95037Y148195D02*
Y151945D01*
X93474D02*
X96599D01*
X96531Y297790D02*
Y301540D01*
X98719*
X99344Y301228*
X99657Y300602*
X99344Y299978*
X98719Y299665*
X96531*
X106531Y297722D02*
Y301472D01*
X108719*
X109344Y301159*
X109657Y300534*
X109344Y299909*
X108719Y299597*
X106531*
X109714Y216016D02*
Y217266D01*
X110027Y217891*
X110339Y218204*
X110964Y218516*
X111589*
X112214Y218204*
X112527Y217891*
X112839Y217266*
Y216016*
X112527Y215391*
X112214Y215079*
X111589Y214766*
X110964*
X110339Y215079*
X110027Y215391*
X109714Y216016*
X111902Y215704D02*
X112839Y214766D01*
X109714Y241607D02*
Y242857D01*
X110027Y243482*
X110339Y243794*
X110964Y244107*
X111589*
X112214Y243794*
X112527Y243482*
X112839Y242857*
Y241607*
X112527Y240982*
X112214Y240669*
X111589Y240357*
X110964*
X110339Y240669*
X110027Y240982*
X109714Y241607*
X111902Y241294D02*
X112839Y240357D01*
X111023Y69738D02*
Y73488D01*
X114148Y69738*
Y73488*
X111023Y341392D02*
Y345142D01*
X114148Y341392*
Y345142*
X117478Y148195D02*
Y151945D01*
X115915D02*
X119040D01*
X119393Y109614D02*
Y113364D01*
X121580*
X122206Y113052*
X122518Y112426*
X122206Y111802*
X121580Y111489*
X119393*
X121415Y143235D02*
Y146985D01*
X119852D02*
X122977D01*
X121415Y158195D02*
Y161945D01*
X119852D02*
X122977D01*
X121415Y173156D02*
Y176906D01*
X119852D02*
X122977D01*
X127482Y129455D02*
X128732D01*
X128107D02*
Y133205D01*
X127482D02*
X128732D01*
X130238Y223156D02*
X131488D01*
X130863D02*
Y226906D01*
X130238D02*
X131488D01*
X130238Y247959D02*
X131488D01*
X130863D02*
Y251709D01*
X130238D02*
X131488D01*
X129393Y109546D02*
Y113296D01*
X131580*
X132206Y112983*
X132518Y112358*
X132206Y111733*
X131580Y111421*
X129393*
X134407Y168195D02*
Y171945D01*
X132844D02*
X135969D01*
X139131Y143195D02*
Y146945D01*
X137569D02*
X140694D01*
X139393Y109614D02*
Y113364D01*
X141580*
X142206Y113052*
X142518Y112426*
X142206Y111802*
X141580Y111489*
X139393*
X141887Y153077D02*
Y156827D01*
X140324D02*
X143450D01*
X141887Y163313D02*
Y167063D01*
X140324D02*
X143450D01*
X141887Y173156D02*
Y176906D01*
X140324D02*
X143450D01*
X145037Y194022D02*
Y197772D01*
X143474D02*
X146599D01*
X148974Y231593D02*
Y235343D01*
X147411D02*
X150536D01*
X149530Y129849D02*
X150780D01*
X150155D02*
Y133599D01*
X149530D02*
X150780D01*
X150548Y210557D02*
Y214307D01*
X148986D02*
X152111D01*
X149380Y109614D02*
Y113364D01*
X151567*
X152192Y113052*
X152505Y112426*
X152192Y111802*
X151567Y111489*
X149380*
X152285Y294809D02*
X153535D01*
X152911D02*
Y298559D01*
X152285D02*
X153535D01*
X153860Y69613D02*
X155110D01*
X154485D02*
Y73363D01*
X153860D02*
X155110D01*
X154254Y57014D02*
X155504D01*
X154879D02*
Y60764D01*
X154254D02*
X155504D01*
X155273Y168038D02*
Y171788D01*
X153710D02*
X156835D01*
X155863Y183392D02*
Y187142D01*
X154301D02*
X157426D01*
X158029Y148195D02*
Y151945D01*
X156466D02*
X159591D01*
X158816Y154258D02*
Y158008D01*
X157254D02*
X160379D01*
X160785Y334967D02*
Y338717D01*
X159222D02*
X162347D01*
X167084Y176306D02*
Y180056D01*
X165521D02*
X168646D01*
X169608Y317644D02*
X170858D01*
X170233D02*
Y321394D01*
X169608D02*
X170858D01*
X172596Y171581D02*
Y175331D01*
X171033D02*
X174158D01*
X173946Y125518D02*
Y129268D01*
X172383D02*
X175509D01*
X176533Y96778D02*
Y100528D01*
X174970D02*
X178095D01*
X177714Y192841D02*
Y196591D01*
X176151D02*
X179276D01*
X180076Y232605D02*
Y236355D01*
X178513D02*
X181639D01*
X180238Y295203D02*
X181488D01*
X180863D02*
Y298953D01*
X180238D02*
X181488D01*
X182044Y224337D02*
Y228087D01*
X180482D02*
X183607D01*
X182832Y214101D02*
Y217851D01*
X181269D02*
X184394D01*
X183029Y260557D02*
Y264307D01*
X181466D02*
X184591D01*
X184800Y97172D02*
Y100922D01*
X183238D02*
X186363D01*
X184800Y112526D02*
Y116276D01*
X183238D02*
X186363D01*
X185194Y174337D02*
Y178087D01*
X183631D02*
X186757D01*
X187950Y233786D02*
Y237536D01*
X186387D02*
X189513D01*
X189525Y157408D02*
Y161158D01*
X187962D02*
X191087D01*
X189525Y205439D02*
Y209189D01*
X187962D02*
X191087D01*
X191493Y327487D02*
Y331237D01*
X189931D02*
X193056D01*
X192640Y310361D02*
X193890D01*
X193265D02*
Y314111D01*
X192640D02*
X193890D01*
X194249Y195203D02*
Y198953D01*
X192687D02*
X195812D01*
X198348Y295203D02*
X199598D01*
X198974D02*
Y298953D01*
X198348D02*
X199598D01*
X200745Y261345D02*
Y265095D01*
X199183D02*
X202308D01*
X202123Y190872D02*
Y194622D01*
X200561D02*
X203686D01*
X202517Y195203D02*
Y198953D01*
X200954D02*
X204080D01*
X202714Y257408D02*
Y261158D01*
X201151D02*
X204276D01*
X204682Y252683D02*
Y256433D01*
X203120D02*
X206245D01*
X206651Y248746D02*
Y252496D01*
X205088D02*
X208213D01*
X207635Y109376D02*
Y113126D01*
X206072D02*
X209198D01*
X207797Y352290D02*
X209047D01*
X208422D02*
Y356040D01*
X207797D02*
X209047D01*
X208978Y301896D02*
X210228D01*
X209604D02*
Y305646D01*
X208978D02*
X210228D01*
X210947Y70400D02*
X212197D01*
X211572D02*
Y74150D01*
X210947D02*
X212197D01*
X211341Y57408D02*
X212591D01*
X211966D02*
Y61158D01*
X211341D02*
X212591D01*
X213147Y157408D02*
Y161158D01*
X211584D02*
X214709D01*
X216296Y116069D02*
Y119819D01*
X214734D02*
X217859D01*
X217084Y274731D02*
Y278481D01*
X215521D02*
X218646D01*
X217084Y300715D02*
Y304465D01*
X215521D02*
X218646D01*
X218462Y238117D02*
Y241867D01*
X216899D02*
X220024D01*
X219446Y231030D02*
Y234780D01*
X217883D02*
X221009D01*
X222596Y209770D02*
Y213520D01*
X221033D02*
X224158D01*
X224564Y258195D02*
Y261945D01*
X223002D02*
X226127D01*
X225514Y295597D02*
X226764D01*
X226139D02*
Y299347D01*
X225514D02*
X226764D01*
X228501Y118825D02*
Y122575D01*
X226939D02*
X230064D01*
X230863Y261739D02*
Y265489D01*
X229301D02*
X232426D01*
X232600Y56620D02*
X233850D01*
X233226D02*
Y60370D01*
X232600D02*
X233850D01*
X238147Y272369D02*
Y276119D01*
X236584D02*
X239709D01*
X239919Y195991D02*
Y199741D01*
X238356D02*
X241481D01*
X239293Y295203D02*
X240543D01*
X239919D02*
Y298953D01*
X239293D02*
X240543D01*
X240312Y224731D02*
Y228481D01*
X238750D02*
X241875D01*
X240706Y211739D02*
Y215489D01*
X239143D02*
X242269D01*
X240706Y275912D02*
Y279662D01*
X239143D02*
X242269D01*
X241100Y144809D02*
Y148559D01*
X239537D02*
X242662D01*
X242084Y190479D02*
Y194229D01*
X240521D02*
X243646D01*
X243624Y87329D02*
X244874D01*
X244249D02*
Y91079D01*
X243624D02*
X244874D01*
X244249Y212526D02*
Y216276D01*
X242687D02*
X245812D01*
X244643Y188904D02*
Y192654D01*
X243080D02*
X246206D01*
X244643Y208786D02*
Y212536D01*
X243080D02*
X246206D01*
X245430Y164494D02*
Y168244D01*
X243868D02*
X246993D01*
X246218Y200321D02*
Y204071D01*
X244655D02*
X247780D01*
X246218Y261739D02*
Y265489D01*
X244655D02*
X247780D01*
X247005Y214888D02*
Y218638D01*
X245443D02*
X248568D01*
X247793Y220597D02*
Y224347D01*
X246230D02*
X249355D01*
X247167Y350715D02*
X248417D01*
X247793D02*
Y354465D01*
X247167D02*
X248417D01*
X248186Y206227D02*
Y209977D01*
X246624D02*
X249749D01*
X248186Y233786D02*
Y237536D01*
X246624D02*
X249749D01*
X248974Y237723D02*
Y241473D01*
X247411D02*
X250536D01*
X249761Y193628D02*
Y197378D01*
X248198D02*
X251324D01*
X249761Y217250D02*
Y221000D01*
X248198D02*
X251324D01*
X250942Y227683D02*
Y231433D01*
X249380D02*
X252505D01*
X255667Y119613D02*
Y123363D01*
X254104D02*
X257229D01*
X256060Y129061D02*
Y132811D01*
X254498D02*
X257623D01*
X256060Y132605D02*
Y136355D01*
X254498D02*
X257623D01*
X256454Y125124D02*
Y128874D01*
X254891D02*
X258017D01*
X260391Y107014D02*
Y110764D01*
X258828D02*
X261954D01*
X261572Y268431D02*
Y272181D01*
X260009D02*
X263135D01*
X261572Y277880D02*
Y281630D01*
X260009D02*
X263135D01*
X263934Y168431D02*
Y172181D01*
X262372D02*
X265497D01*
X263309Y295203D02*
X264559D01*
X263934D02*
Y298953D01*
X263309D02*
X264559D01*
X265115Y182211D02*
Y185961D01*
X263553D02*
X266678D01*
X265509Y157408D02*
Y161158D01*
X263946D02*
X267072D01*
X266459Y145991D02*
X267709D01*
X267084D02*
Y149741D01*
X266459D02*
X267709D01*
X268265Y225124D02*
Y228874D01*
X266702D02*
X269828D01*
X271415Y174337D02*
Y178087D01*
X269852D02*
X272977D01*
X271808Y228274D02*
Y232024D01*
X270246D02*
X273371D01*
X273152Y130243D02*
X274402D01*
X273777D02*
Y133993D01*
X273152D02*
X274402D01*
X278107Y185754D02*
Y189504D01*
X276545D02*
X279670D01*
X279289Y159376D02*
Y163126D01*
X277726D02*
X280851D01*
X279682Y208983D02*
Y212733D01*
X278120D02*
X281245D01*
X281651Y228274D02*
Y232024D01*
X280088D02*
X283213D01*
X282438Y122762D02*
Y126512D01*
X280876D02*
X284001D01*
X285588Y248353D02*
Y252103D01*
X284025D02*
X287150D01*
X285600Y69738D02*
Y73488D01*
X288725Y69738*
Y73488*
X286931Y238117D02*
X288181D01*
X287556D02*
Y241867D01*
X286931D02*
X288181D01*
X286191Y140235D02*
X286503Y139610D01*
X287128Y139298*
X288378*
X289003Y139610*
X289316Y140235*
X289003Y140860*
X288378Y141173*
X287128*
X286503Y141485*
X286191Y142110*
X286503Y142735*
X287128Y143048*
X288378*
X289003Y142735*
X289316Y142110*
X286387Y332605D02*
Y336355D01*
X289513Y332605*
Y336355*
X289919Y225124D02*
Y228874D01*
X288356D02*
X291481D01*
X291493Y188904D02*
Y192654D01*
X289931D02*
X293056D01*
X292084Y245991D02*
Y249741D01*
X290521D02*
X293646D01*
X293068Y156620D02*
Y160370D01*
X291506D02*
X294631D01*
X293462Y164888D02*
Y168638D01*
X291899D02*
X295024D01*
X295037Y196778D02*
Y200528D01*
X293474D02*
X296599D01*
X295430Y211739D02*
Y215489D01*
X293868D02*
X296993D01*
X294261Y134180D02*
Y137930D01*
X296449*
X297074Y137617*
X297387Y136992*
X297074Y136367*
X296449Y136055*
X294261*
X296449D02*
X297387Y134180D01*
X296218Y217250D02*
Y221000D01*
X294655D02*
X297780D01*
X295593Y279455D02*
X296843D01*
X296218D02*
Y283205D01*
X295593D02*
X296843D01*
X297005Y208983D02*
Y212733D01*
X295443D02*
X298568D01*
X297411Y144416D02*
Y148166D01*
X299598*
X300224Y147854*
X300536Y147228*
X300224Y146604*
X299598Y146291*
X297411*
X299598D02*
X300536Y144416D01*
X300155Y245991D02*
Y249741D01*
X298592D02*
X301717D01*
X300561Y134180D02*
Y137930D01*
X302748*
X303373Y137617*
X303686Y136992*
X303373Y136367*
X302748Y136055*
X300561*
X302748D02*
X303686Y134180D01*
X303698Y161739D02*
Y165489D01*
X302135D02*
X305261D01*
X303073Y173550D02*
X304323D01*
X303698D02*
Y177300D01*
X303073D02*
X304323D01*
X303710Y144416D02*
Y148166D01*
X305898*
X306523Y147854*
X306835Y147228*
X306523Y146604*
X305898Y146291*
X303710*
X305898D02*
X306835Y144416D01*
X306860Y134180D02*
Y137930D01*
X309047*
X309672Y137617*
X309985Y136992*
X309672Y136367*
X309047Y136055*
X306860*
X309047D02*
X309985Y134180D01*
X311966Y202683D02*
Y206433D01*
X310403D02*
X313528D01*
X311734Y279455D02*
X312984D01*
X312359D02*
Y283205D01*
X311734D02*
X312984D01*
X312753Y191266D02*
Y195016D01*
X311191D02*
X314316D01*
X314931Y140235D02*
X315243Y139610D01*
X315868Y139298*
X317118*
X317743Y139610*
X318056Y140235*
X317743Y140860*
X317118Y141173*
X315868*
X315243Y141485*
X314931Y142110*
X315243Y142735*
X315868Y143048*
X317118*
X317743Y142735*
X318056Y142110*
X318033Y173943D02*
X319283D01*
X318659D02*
Y177693D01*
X318033D02*
X319283D01*
X319446Y193798D02*
Y197548D01*
X317883D02*
X321009D01*
X323939Y184573D02*
X325189D01*
X324564D02*
Y188323D01*
X323939D02*
X325189D01*
X323691Y219410D02*
Y220660D01*
X324003Y221285*
X324316Y221598*
X324941Y221910*
X325566*
X326191Y221598*
X326503Y221285*
X326816Y220660*
Y219410*
X326503Y218785*
X326191Y218472*
X325566Y218160*
X324941*
X324316Y218472*
X324003Y218785*
X323691Y219410*
X325878Y219098D02*
X326816Y218160D01*
X323691Y245000D02*
Y246250D01*
X324003Y246876*
X324316Y247188*
X324941Y247500*
X325566*
X326191Y247188*
X326503Y246876*
X326816Y246250*
Y245000*
X326503Y244376*
X326191Y244063*
X325566Y243750*
X324941*
X324316Y244063*
X324003Y244376*
X323691Y245000*
X325878Y244688D02*
X326816Y243750D01*
X324726Y96778D02*
X325976D01*
X325352D02*
Y100528D01*
X324726D02*
X325976D01*
X326533Y156620D02*
Y160370D01*
X324970D02*
X328095D01*
X326926Y284967D02*
Y288717D01*
X325364D02*
X328489D01*
X329451Y107802D02*
X330701D01*
X330076D02*
Y111552D01*
X329451D02*
X330701D01*
X332207Y166463D02*
X333457D01*
X332832D02*
Y170213D01*
X332207D02*
X333457D01*
X334963Y337329D02*
X336213D01*
X335588D02*
Y341079D01*
X334963D02*
X336213D01*
X335750Y328668D02*
X337000D01*
X336375D02*
Y332418D01*
X335750D02*
X337000D01*
X337950Y259376D02*
Y263126D01*
X336387D02*
X339513D01*
X338506Y306620D02*
X339756D01*
X339131D02*
Y310370D01*
X338506D02*
X339756D01*
X345199Y336542D02*
X346449D01*
X345824D02*
Y340292D01*
X345199D02*
X346449D01*
X345593Y300715D02*
X346843D01*
X346218D02*
Y304465D01*
X345593D02*
X346843D01*
X346380Y101109D02*
X347630D01*
X347005D02*
Y104859D01*
X346380D02*
X347630D01*
X346774Y184573D02*
X348024D01*
X347399D02*
Y188323D01*
X346774D02*
X348024D01*
X346230Y67319D02*
Y68569D01*
X346543Y69194*
X346855Y69507*
X347480Y69819*
X348105*
X348730Y69507*
X349043Y69194*
X349355Y68569*
Y67319*
X349043Y66694*
X348730Y66382*
X348105Y66069*
X347480*
X346855Y66382*
X346543Y66694*
X346230Y67319*
Y77319D02*
Y78569D01*
X346543Y79194*
X346855Y79507*
X347480Y79819*
X348105*
X348730Y79507*
X349043Y79194*
X349355Y78569*
Y77319*
X349043Y76694*
X348730Y76382*
X348105Y76069*
X347480*
X346855Y76382*
X346543Y76694*
X346230Y77319*
X347561Y160164D02*
X348811D01*
X348186D02*
Y163914D01*
X347561D02*
X348811D01*
X349923Y307408D02*
X351173D01*
X350548D02*
Y311158D01*
X349923D02*
X351173D01*
X351104Y96384D02*
X352354D01*
X351730D02*
Y100134D01*
X351104D02*
X352354D01*
X356230Y67319D02*
Y68569D01*
X356543Y69194*
X356855Y69507*
X357480Y69819*
X358105*
X358730Y69507*
X359043Y69194*
X359355Y68569*
Y67319*
X359043Y66694*
X358730Y66382*
X358105Y66069*
X357480*
X356855Y66382*
X356543Y66694*
X356230Y67319*
Y77319D02*
Y78569D01*
X356543Y79194*
X356855Y79507*
X357480Y79819*
X358105*
X358730Y79507*
X359043Y79194*
X359355Y78569*
Y77319*
X359043Y76694*
X358730Y76382*
X358105Y76069*
X357480*
X356855Y76382*
X356543Y76694*
X356230Y77319*
X366230Y67319D02*
Y68569D01*
X366543Y69194*
X366855Y69507*
X367480Y69819*
X368105*
X368730Y69507*
X369043Y69194*
X369355Y68569*
Y67319*
X369043Y66694*
X368730Y66382*
X368105Y66069*
X367480*
X366855Y66382*
X366543Y66694*
X366230Y67319*
Y77319D02*
Y78569D01*
X366543Y79194*
X366855Y79507*
X367480Y79819*
X368105*
X368730Y79507*
X369043Y79194*
X369355Y78569*
Y77319*
X369043Y76694*
X368730Y76382*
X368105Y76069*
X367480*
X366855Y76382*
X366543Y76694*
X366230Y77319*
X368821Y112920D02*
X370071D01*
X369446D02*
Y116670D01*
X368821D02*
X370071D01*
X370246Y259008D02*
Y262758D01*
Y260883D02*
X373371D01*
Y259008D02*
Y262758D01*
X370246Y268825D02*
Y272575D01*
Y270700D02*
X373371D01*
Y268825D02*
Y272575D01*
X372202Y168431D02*
Y172181D01*
X370639D02*
X373765D01*
X374564Y251109D02*
Y254859D01*
X373002D02*
X376127D01*
X374333Y123943D02*
X375583D01*
X374958D02*
Y127693D01*
X374333D02*
X375583D01*
X376230Y67319D02*
Y68569D01*
X376543Y69194*
X376855Y69507*
X377480Y69819*
X378105*
X378730Y69507*
X379043Y69194*
X379355Y68569*
Y67319*
X379043Y66694*
X378730Y66382*
X378105Y66069*
X377480*
X376855Y66382*
X376543Y66694*
X376230Y67319*
Y77319D02*
Y78569D01*
X376543Y79194*
X376855Y79507*
X377480Y79819*
X378105*
X378730Y79507*
X379043Y79194*
X379355Y78569*
Y77319*
X379043Y76694*
X378730Y76382*
X378105Y76069*
X377480*
X376855Y76382*
X376543Y76694*
X376230Y77319*
X379057Y186542D02*
X380307D01*
X379682D02*
Y190292D01*
X379057D02*
X380307D01*
X382994Y275518D02*
X384244D01*
X383619D02*
Y279268D01*
X382994D02*
X384244D01*
X386230Y67319D02*
Y68569D01*
X386543Y69194*
X386855Y69507*
X387480Y69819*
X388105*
X388730Y69507*
X389043Y69194*
X389355Y68569*
Y67319*
X389043Y66694*
X388730Y66382*
X388105Y66069*
X387480*
X386855Y66382*
X386543Y66694*
X386230Y67319*
Y77319D02*
Y78569D01*
X386543Y79194*
X386855Y79507*
X387480Y79819*
X388105*
X388730Y79507*
X389043Y79194*
X389355Y78569*
Y77319*
X389043Y76694*
X388730Y76382*
X388105Y76069*
X387480*
X386855Y76382*
X386543Y76694*
X386230Y77319*
X387325Y123550D02*
X388575D01*
X387950D02*
Y127300D01*
X387325D02*
X388575D01*
X396230Y67319D02*
Y68569D01*
X396543Y69194*
X396855Y69507*
X397480Y69819*
X398105*
X398730Y69507*
X399043Y69194*
X399355Y68569*
Y67319*
X399043Y66694*
X398730Y66382*
X398105Y66069*
X397480*
X396855Y66382*
X396543Y66694*
X396230Y67319*
Y77319D02*
Y78569D01*
X396543Y79194*
X396855Y79507*
X397480Y79819*
X398105*
X398730Y79507*
X399043Y79194*
X399355Y78569*
Y77319*
X399043Y76694*
X398730Y76382*
X398105Y76069*
X397480*
X396855Y76382*
X396543Y76694*
X396230Y77319*
X401336Y138904D02*
Y142654D01*
X399773D02*
X402898D01*
X401104Y186542D02*
X402354D01*
X401730D02*
Y190292D01*
X401104D02*
X402354D01*
X403467Y272762D02*
X404717D01*
X404092D02*
Y276512D01*
X403467D02*
X404717D01*
X406230Y67319D02*
Y68569D01*
X406543Y69194*
X406855Y69507*
X407480Y69819*
X408105*
X408730Y69507*
X409043Y69194*
X409355Y68569*
Y67319*
X409043Y66694*
X408730Y66382*
X408105Y66069*
X407480*
X406855Y66382*
X406543Y66694*
X406230Y67319*
Y77319D02*
Y78569D01*
X406543Y79194*
X406855Y79507*
X407480Y79819*
X408105*
X408730Y79507*
X409043Y79194*
X409355Y78569*
Y77319*
X409043Y76694*
X408730Y76382*
X408105Y76069*
X407480*
X406855Y76382*
X406543Y76694*
X406230Y77319*
X408191Y126699D02*
X409441D01*
X408816D02*
Y130449D01*
X408191D02*
X409441D01*
X413309Y309770D02*
X414559D01*
X413934D02*
Y313520D01*
X413309D02*
X414559D01*
X416230Y67319D02*
Y68569D01*
X416543Y69194*
X416855Y69507*
X417480Y69819*
X418105*
X418730Y69507*
X419043Y69194*
X419355Y68569*
Y67319*
X419043Y66694*
X418730Y66382*
X418105Y66069*
X417480*
X416855Y66382*
X416543Y66694*
X416230Y67319*
Y77319D02*
Y78569D01*
X416543Y79194*
X416855Y79507*
X417480Y79819*
X418105*
X418730Y79507*
X419043Y79194*
X419355Y78569*
Y77319*
X419043Y76694*
X418730Y76382*
X418105Y76069*
X417480*
X416855Y76382*
X416543Y76694*
X416230Y77319*
X421577Y272762D02*
X422827D01*
X422202D02*
Y276512D01*
X421577D02*
X422827D01*
X426104Y300715D02*
X427354D01*
X426730D02*
Y304465D01*
X426104D02*
X427354D01*
X426230Y67319D02*
Y68569D01*
X426543Y69194*
X426855Y69507*
X427480Y69819*
X428105*
X428730Y69507*
X429043Y69194*
X429355Y68569*
Y67319*
X429043Y66694*
X428730Y66382*
X428105Y66069*
X427480*
X426855Y66382*
X426543Y66694*
X426230Y67319*
Y77319D02*
Y78569D01*
X426543Y79194*
X426855Y79507*
X427480Y79819*
X428105*
X428730Y79507*
X429043Y79194*
X429355Y78569*
Y77319*
X429043Y76694*
X428730Y76382*
X428105Y76069*
X427480*
X426855Y76382*
X426543Y76694*
X426230Y77319*
X428501Y123156D02*
Y126906D01*
X426939D02*
X430064D01*
X429844Y205833D02*
X431094D01*
X430470D02*
Y209583D01*
X429844D02*
X431094D01*
X430632Y144416D02*
X431882D01*
X431257D02*
Y148166D01*
X430632D02*
X431882D01*
X436611Y105833D02*
Y109583D01*
X435049D02*
X438174D01*
X436230Y67319D02*
Y68569D01*
X436543Y69194*
X436855Y69507*
X437480Y69819*
X438105*
X438730Y69507*
X439043Y69194*
X439355Y68569*
Y67319*
X439043Y66694*
X438730Y66382*
X438105Y66069*
X437480*
X436855Y66382*
X436543Y66694*
X436230Y67319*
Y77319D02*
Y78569D01*
X436543Y79194*
X436855Y79507*
X437480Y79819*
X438105*
X438730Y79507*
X439043Y79194*
X439355Y78569*
Y77319*
X439043Y76694*
X438730Y76382*
X438105Y76069*
X437480*
X436855Y76382*
X436543Y76694*
X436230Y77319*
X446230Y67319D02*
Y68569D01*
X446543Y69194*
X446855Y69507*
X447480Y69819*
X448105*
X448730Y69507*
X449043Y69194*
X449355Y68569*
Y67319*
X449043Y66694*
X448730Y66382*
X448105Y66069*
X447480*
X446855Y66382*
X446543Y66694*
X446230Y67319*
Y77319D02*
Y78569D01*
X446543Y79194*
X446855Y79507*
X447480Y79819*
X448105*
X448730Y79507*
X449043Y79194*
X449355Y78569*
Y77319*
X449043Y76694*
X448730Y76382*
X448105Y76069*
X447480*
X446855Y76382*
X446543Y76694*
X446230Y77319*
X447167Y201896D02*
X448417D01*
X447793D02*
Y205646D01*
X447167D02*
X448417D01*
X448580Y128274D02*
Y132024D01*
X447017D02*
X450143D01*
X454648Y160951D02*
X455898D01*
X455273D02*
Y164701D01*
X454648D02*
X455898D01*
X456230Y67319D02*
Y68569D01*
X456543Y69194*
X456855Y69507*
X457480Y69819*
X458105*
X458730Y69507*
X459043Y69194*
X459355Y68569*
Y67319*
X459043Y66694*
X458730Y66382*
X458105Y66069*
X457480*
X456855Y66382*
X456543Y66694*
X456230Y67319*
Y77319D02*
Y78569D01*
X456543Y79194*
X456855Y79507*
X457480Y79819*
X458105*
X458730Y79507*
X459043Y79194*
X459355Y78569*
Y77319*
X459043Y76694*
X458730Y76382*
X458105Y76069*
X457480*
X456855Y76382*
X456543Y76694*
X456230Y77319*
X466230Y67319D02*
Y68569D01*
X466543Y69194*
X466855Y69507*
X467480Y69819*
X468105*
X468730Y69507*
X469043Y69194*
X469355Y68569*
Y67319*
X469043Y66694*
X468730Y66382*
X468105Y66069*
X467480*
X466855Y66382*
X466543Y66694*
X466230Y67319*
Y77319D02*
Y78569D01*
X466543Y79194*
X466855Y79507*
X467480Y79819*
X468105*
X468730Y79507*
X469043Y79194*
X469355Y78569*
Y77319*
X469043Y76694*
X468730Y76382*
X468105Y76069*
X467480*
X466855Y76382*
X466543Y76694*
X466230Y77319*
X471577Y133392D02*
X472827D01*
X472202D02*
Y137142D01*
X471577D02*
X472827D01*
X476230Y67319D02*
Y68569D01*
X476543Y69194*
X476855Y69507*
X477480Y69819*
X478105*
X478730Y69507*
X479043Y69194*
X479355Y68569*
Y67319*
X479043Y66694*
X478730Y66382*
X478105Y66069*
X477480*
X476855Y66382*
X476543Y66694*
X476230Y67319*
Y77319D02*
Y78569D01*
X476543Y79194*
X476855Y79507*
X477480Y79819*
X478105*
X478730Y79507*
X479043Y79194*
X479355Y78569*
Y77319*
X479043Y76694*
X478730Y76382*
X478105Y76069*
X477480*
X476855Y76382*
X476543Y76694*
X476230Y77319*
X484569Y209770D02*
X485819D01*
X485194D02*
Y213520D01*
X484569D02*
X485819D01*
X485588Y123294D02*
Y127044D01*
X484025D02*
X487150D01*
X485356Y203077D02*
X486606D01*
X485981D02*
Y206827D01*
X485356D02*
X486606D01*
X485750Y216463D02*
X487000D01*
X486375D02*
Y220213D01*
X485750D02*
X487000D01*
X486230Y67319D02*
Y68569D01*
X486543Y69194*
X486855Y69507*
X487480Y69819*
X488105*
X488730Y69507*
X489043Y69194*
X489355Y68569*
Y67319*
X489043Y66694*
X488730Y66382*
X488105Y66069*
X487480*
X486855Y66382*
X486543Y66694*
X486230Y67319*
Y77319D02*
Y78569D01*
X486543Y79194*
X486855Y79507*
X487480Y79819*
X488105*
X488730Y79507*
X489043Y79194*
X489355Y78569*
Y77319*
X489043Y76694*
X488730Y76382*
X488105Y76069*
X487480*
X486855Y76382*
X486543Y76694*
X486230Y77319*
X493624Y92841D02*
X494874D01*
X494249D02*
Y96591D01*
X493624D02*
X494874D01*
X494805Y340479D02*
X496055D01*
X495430D02*
Y344229D01*
X494805D02*
X496055D01*
X506048Y294254D02*
X505735Y293941D01*
X505110Y293628*
X504173*
X503548Y293941*
X503235Y294254*
X502923Y294878*
Y296128*
X503235Y296754*
X503548Y297066*
X504173Y297378*
X505110*
X505735Y297066*
X506048Y296754*
X504254Y341660D02*
X505504D01*
X504879D02*
Y345410D01*
X504254D02*
X505504D01*
X517246Y159376D02*
X518496D01*
X517871D02*
Y163126D01*
X517246D02*
X518496D01*
X521820Y127880D02*
Y131630D01*
X524946Y127880*
Y131630*
X540324Y341392D02*
Y345142D01*
X543450Y341392*
Y345142*
X550930Y248584D02*
X550617Y248272D01*
X549992Y247959*
X549055*
X548430Y248272*
X548117Y248584*
X547805Y249209*
Y250459*
X548117Y251084*
X548430Y251397*
X549055Y251709*
X549992*
X550617Y251397*
X550930Y251084*
X554254Y162132D02*
X555504D01*
X554879D02*
Y165882D01*
X554254D02*
X555504D01*
X0Y0D02*
M02*
