G04 EasyPC Gerber Version 21.0.3 Build 4286 *
%FSLAX35Y35*%
%MOIN*%
%ADD96C,0.00001*%
%ADD93C,0.00080*%
%ADD79C,0.00100*%
%ADD98C,0.00128*%
%ADD92C,0.00300*%
%ADD84C,0.00320*%
%ADD89C,0.00394*%
%ADD85C,0.00400*%
%ADD82C,0.00500*%
%ADD83C,0.00576*%
%ADD94C,0.00600*%
%ADD86C,0.00787*%
%ADD91C,0.00800*%
%ADD95C,0.00820*%
%ADD88C,0.01000*%
%ADD87C,0.01200*%
%ADD97C,0.02500*%
%ADD90C,0.02756*%
X0Y0D02*
D02*
D79*
X26787Y275855D02*
Y273296D01*
X32299*
Y275855*
X26787*
G36*
Y273296*
X32299*
Y275855*
X26787*
G37*
Y281655D02*
Y279096D01*
X32299*
Y281655*
X26787*
G36*
Y279096*
X32299*
Y281655*
X26787*
G37*
X46472Y275855D02*
Y273296D01*
X51984*
Y275855*
X46472*
G36*
Y273296*
X51984*
Y275855*
X46472*
G37*
Y281655D02*
Y279096D01*
X51984*
Y281655*
X46472*
G36*
Y279096*
X51984*
Y281655*
X46472*
G37*
X153683Y63287D02*
X156243D01*
Y68799*
X153683*
Y63287*
G36*
X156243*
Y68799*
X153683*
Y63287*
G37*
X156677Y79811D02*
X154118D01*
Y74299*
X156677*
Y79811*
G36*
X154118*
Y74299*
X156677*
Y79811*
G37*
X159483Y63287D02*
X162043D01*
Y68799*
X159483*
Y63287*
G36*
X162043*
Y68799*
X159483*
Y63287*
G37*
X162477Y79811D02*
X159918D01*
Y74299*
X162477*
Y79811*
G36*
X159918*
Y74299*
X162477*
Y79811*
G37*
X164313Y333366D02*
X166872D01*
Y338878*
X164313*
Y333366*
G36*
X166872*
Y338878*
X164313*
Y333366*
G37*
X169669Y315244D02*
X167110D01*
Y309732*
X169669*
Y315244*
G36*
X167110*
Y309732*
X169669*
Y315244*
G37*
X170113Y333366D02*
X172672D01*
Y338878*
X170113*
Y333366*
G36*
X172672*
Y338878*
X170113*
Y333366*
G37*
X175469Y315244D02*
X172910D01*
Y309732*
X175469*
Y315244*
G36*
X172910*
Y309732*
X175469*
Y315244*
G37*
X180849Y75492D02*
X183408D01*
Y81004*
X180849*
Y75492*
G36*
X183408*
Y81004*
X180849*
Y75492*
G37*
X183843Y68787D02*
X181283D01*
Y63276*
X183843*
Y68787*
G36*
X181283*
Y63276*
X183843*
Y68787*
G37*
X186649Y75492D02*
X189208D01*
Y81004*
X186649*
Y75492*
G36*
X189208*
Y81004*
X186649*
Y75492*
G37*
X189643Y68787D02*
X187083D01*
Y63276*
X189643*
Y68787*
G36*
X187083*
Y63276*
X189643*
Y68787*
G37*
X212345Y309744D02*
X214904D01*
Y315256*
X212345*
Y309744*
G36*
X214904*
Y315256*
X212345*
Y309744*
G37*
X218145D02*
X220704D01*
Y315256*
X218145*
Y309744*
G36*
X220704*
Y315256*
X218145*
Y309744*
G37*
X223213Y345165D02*
X220654D01*
Y339654*
X223213*
Y345165*
G36*
X220654*
Y339654*
X223213*
Y345165*
G37*
X229013D02*
X226454D01*
Y339654*
X229013*
Y345165*
G36*
X226454*
Y339654*
X229013*
Y345165*
G37*
X261998Y280624D02*
X263277D01*
Y282593*
X261998*
Y280624*
G36*
X263277*
Y282593*
X261998*
Y280624*
G37*
Y288203D02*
X263277D01*
Y288498*
X261998*
Y288203*
G36*
X263277*
Y288498*
X261998*
Y288203*
G37*
X262096Y286530D02*
X263277D01*
Y287561*
X262096*
Y286530*
G36*
X263277*
Y287561*
X262096*
Y286530*
G37*
X262220Y266406D02*
Y263847D01*
X267732*
Y266406*
X262220*
G36*
Y263847*
X267732*
Y266406*
X262220*
G37*
Y272206D02*
Y269647D01*
X267732*
Y272206*
X262220*
G36*
Y269647*
X267732*
Y272206*
X262220*
G37*
X263179Y281608D02*
X263769D01*
Y282593*
X263179*
Y281608*
G36*
X263769*
Y282593*
X263179*
Y281608*
G37*
Y286530D02*
X263769D01*
Y287514*
X263179*
Y286530*
G36*
X263769*
Y287514*
X263179*
Y286530*
G37*
X263671Y281904D02*
X265246D01*
Y282593*
X263671*
Y281904*
G36*
X265246*
Y282593*
X263671*
Y281904*
G37*
Y286530D02*
X265246D01*
Y287219*
X263671*
Y286530*
G36*
X265246*
Y287219*
X263671*
Y286530*
G37*
X265147Y281608D02*
X265738D01*
Y282593*
X265147*
Y281608*
G36*
X265738*
Y282593*
X265147*
Y281608*
G37*
Y286530D02*
X265738D01*
Y287514*
X265147*
Y286530*
G36*
X265738*
Y287514*
X265147*
Y286530*
G37*
X265639Y280624D02*
X266919D01*
Y282593*
X265639*
Y280624*
G36*
X266919*
Y282593*
X265639*
Y280624*
G37*
Y286530D02*
X266919D01*
Y288498*
X265639*
Y286530*
G36*
X266919*
Y288498*
X265639*
Y286530*
G37*
X275673Y153176D02*
Y155735D01*
X270161*
Y153176*
X275673*
G36*
Y155735*
X270161*
Y153176*
X275673*
G37*
Y158976D02*
Y161535D01*
X270161*
Y158976*
X275673*
G36*
Y161535*
X270161*
Y158976*
X275673*
G37*
X287148Y182579D02*
X289707D01*
Y188091*
X287148*
Y182579*
G36*
X289707*
Y188091*
X287148*
Y182579*
G37*
Y193996D02*
X289707D01*
Y199508*
X287148*
Y193996*
G36*
X289707*
Y199508*
X287148*
Y193996*
G37*
X288002Y149305D02*
X289380D01*
Y152061*
X288002*
Y149305*
G36*
X289380*
Y152061*
X288002*
Y149305*
G37*
X292948Y182579D02*
X295507D01*
Y188091*
X292948*
Y182579*
G36*
X295507*
Y188091*
X292948*
Y182579*
G37*
Y193996D02*
X295507D01*
Y199508*
X292948*
Y193996*
G36*
X295507*
Y199508*
X292948*
Y193996*
G37*
X293907Y152061D02*
X292529D01*
Y149305*
X293907*
Y152061*
G36*
X292529*
Y149305*
X293907*
Y152061*
G37*
X302569Y149305D02*
X303946D01*
Y152061*
X302569*
Y149305*
G36*
X303946*
Y152061*
X302569*
Y149305*
G37*
X308474Y152061D02*
X307096D01*
Y149305*
X308474*
Y152061*
G36*
X307096*
Y149305*
X308474*
Y152061*
G37*
X310770Y328642D02*
X313329D01*
Y334154*
X310770*
Y328642*
G36*
X313329*
Y334154*
X310770*
Y328642*
G37*
X311164Y311319D02*
X313723D01*
Y316831*
X311164*
Y311319*
G36*
X313723*
Y316831*
X311164*
Y311319*
G37*
X313764Y325480D02*
X311205D01*
Y319969*
X313764*
Y325480*
G36*
X311205*
Y319969*
X313764*
Y325480*
G37*
X316570Y328642D02*
X319129D01*
Y334154*
X316570*
Y328642*
G36*
X319129*
Y334154*
X316570*
Y328642*
G37*
X316964Y311319D02*
X319523D01*
Y316831*
X316964*
Y311319*
G36*
X319523*
Y316831*
X316964*
Y311319*
G37*
X319564Y325480D02*
X317005D01*
Y319969*
X319564*
Y325480*
G36*
X317005*
Y319969*
X319564*
Y325480*
G37*
X327699Y231791D02*
X330258D01*
Y237303*
X327699*
Y231791*
G36*
X330258*
Y237303*
X327699*
Y231791*
G37*
X328880Y261713D02*
X331439D01*
Y267224*
X328880*
Y261713*
G36*
X331439*
Y267224*
X328880*
Y261713*
G37*
X329274Y273524D02*
X331833D01*
Y279035*
X329274*
Y273524*
G36*
X331833*
Y279035*
X329274*
Y273524*
G37*
X333499Y231791D02*
X336058D01*
Y237303*
X333499*
Y231791*
G36*
X336058*
Y237303*
X333499*
Y231791*
G37*
X334680Y261713D02*
X337239D01*
Y267224*
X334680*
Y261713*
G36*
X337239*
Y267224*
X334680*
Y261713*
G37*
X335074Y273524D02*
X337633D01*
Y279035*
X335074*
Y273524*
G36*
X337633*
Y279035*
X335074*
Y273524*
G37*
X341643Y328144D02*
Y329423D01*
X341348*
Y328144*
X341643*
G36*
Y329423*
X341348*
Y328144*
X341643*
G37*
X341717Y324299D02*
X339157D01*
Y318787*
X341717*
Y324299*
G36*
X339157*
Y318787*
X341717*
Y324299*
G37*
X343317Y328242D02*
Y329423D01*
X342285*
Y328242*
X343317*
G36*
Y329423*
X342285*
Y328242*
X343317*
G37*
Y329325D02*
Y329915D01*
X342332*
Y329325*
X343317*
G36*
Y329915*
X342332*
Y329325*
X343317*
G37*
Y329817D02*
Y331392D01*
X342628*
Y329817*
X343317*
G36*
Y331392*
X342628*
Y329817*
X343317*
G37*
Y331293D02*
Y331884D01*
X342332*
Y331293*
X343317*
G36*
Y331884*
X342332*
Y331293*
X343317*
G37*
Y331785D02*
Y333065D01*
X341348*
Y331785*
X343317*
G36*
Y333065*
X341348*
Y331785*
X343317*
G37*
X347517Y324299D02*
X344957D01*
Y318787*
X347517*
Y324299*
G36*
X344957*
Y318787*
X347517*
Y324299*
G37*
X347943Y329817D02*
Y331392D01*
X347254*
Y329817*
X347943*
G36*
Y331392*
X347254*
Y329817*
X347943*
G37*
X348238Y329325D02*
Y329915D01*
X347254*
Y329325*
X348238*
G36*
Y329915*
X347254*
Y329325*
X348238*
G37*
Y331293D02*
Y331884D01*
X347254*
Y331293*
X348238*
G36*
Y331884*
X347254*
Y331293*
X348238*
G37*
X349222Y328144D02*
Y329423D01*
X347254*
Y328144*
X349222*
G36*
Y329423*
X347254*
Y328144*
X349222*
G37*
Y331785D02*
Y333065D01*
X347254*
Y331785*
X349222*
G36*
Y333065*
X347254*
Y331785*
X349222*
G37*
X466539Y96877D02*
Y99436D01*
X461027*
Y96877*
X466539*
G36*
Y99436*
X461027*
Y96877*
X466539*
G37*
Y102677D02*
Y105236D01*
X461027*
Y102677*
X466539*
G36*
Y105236*
X461027*
Y102677*
X466539*
G37*
X487799Y96877D02*
Y99436D01*
X482287*
Y96877*
X487799*
G36*
Y99436*
X482287*
Y96877*
X487799*
G37*
Y102677D02*
Y105236D01*
X482287*
Y102677*
X487799*
G36*
Y105236*
X482287*
Y102677*
X487799*
G37*
D02*
D82*
X7465Y258545D02*
X7153Y258232D01*
X6528Y257920*
X5590*
X4965Y258232*
X4653Y258545*
X4340Y259170*
Y260420*
X4653Y261045*
X4965Y261357*
X5590Y261670*
X6528*
X7153Y261357*
X7465Y261045*
X9965Y257920D02*
X11215D01*
X10590D02*
Y261670D01*
X9965Y261045*
X14653Y258232D02*
X15278Y257920D01*
X15903*
X16528Y258232*
X16840Y258857*
Y260732*
X16528Y261357*
X15903Y261670*
X15278*
X14653Y261357*
X14340Y260732*
Y258857*
X14653Y258232*
X16528Y261357*
X19340Y258857D02*
X19653Y259482D01*
X20278Y259795*
X20903*
X21528Y259482*
X21840Y258857*
X21528Y258232*
X20903Y257920*
X20278*
X19653Y258232*
X19340Y258857*
Y259795*
X19653Y260732*
X20278Y261357*
X20903Y261670*
X16108Y239927D02*
Y255927D01*
X9108*
Y239927*
X16108*
X28725Y214450D02*
X28413Y214138D01*
X27787Y213825*
X26850*
X26225Y214138*
X25913Y214450*
X25600Y215075*
Y216325*
X25913Y216950*
X26225Y217263*
X26850Y217575*
X27787*
X28413Y217263*
X28725Y216950*
X30600Y215075D02*
Y216325D01*
X30913Y216950*
X31225Y217263*
X31850Y217575*
X32475*
X33100Y217263*
X33413Y216950*
X33725Y216325*
Y215075*
X33413Y214450*
X33100Y214138*
X32475Y213825*
X31850*
X31225Y214138*
X30913Y214450*
X30600Y215075*
X35600Y213825D02*
Y217575D01*
X38725Y213825*
Y217575*
X40600Y213825D02*
Y217575D01*
X43725Y213825*
Y217575*
X46225Y213825D02*
X47475D01*
X46850D02*
Y217575D01*
X46225Y216950*
X33843Y296340D02*
X33531Y296028D01*
X32906Y295715*
X31968*
X31343Y296028*
X31031Y296340*
X30718Y296965*
Y298215*
X31031Y298840*
X31343Y299153*
X31968Y299465*
X32906*
X33531Y299153*
X33843Y298840*
X36343Y295715D02*
X37593D01*
X36968D02*
Y299465D01*
X36343Y298840*
X41031Y296028D02*
X41656Y295715D01*
X42281*
X42906Y296028*
X43218Y296653*
Y298528*
X42906Y299153*
X42281Y299465*
X41656*
X41031Y299153*
X40718Y298528*
Y296653*
X41031Y296028*
X42906Y299153*
X45718Y296028D02*
X46343Y295715D01*
X47281*
X47906Y296028*
X48218Y296653*
Y296965*
X47906Y297590*
X47281Y297903*
X45718*
Y299465*
X48218*
X43273Y277722D02*
Y293722D01*
X36273*
Y277722*
X43273*
X67726Y222880D02*
Y226630D01*
X70851*
X70226Y224756D02*
X67726D01*
Y222880D02*
X70851D01*
X72726D02*
Y226630D01*
X74913*
X75539Y226318*
X75851Y225693*
X75539Y225068*
X74913Y224756*
X72726*
X74913D02*
X75851Y222880D01*
X77726D02*
X79289Y226630D01*
X80851Y222880*
X78351Y224443D02*
X80226D01*
X82726Y223818D02*
X83039Y223193D01*
X83663Y222880*
X84913*
X85539Y223193*
X85851Y223818*
X85539Y224443*
X84913Y224756*
X83663*
X83039Y225068*
X82726Y225693*
X83039Y226318*
X83663Y226630*
X84913*
X85539Y226318*
X85851Y225693*
X87726Y222880D02*
Y226630D01*
X90851*
X90226Y224756D02*
X87726D01*
Y222880D02*
X90851D01*
X82687Y230511D02*
X82999Y229886D01*
X83624Y229573*
X84874*
X85499Y229886*
X85812Y230511*
X85499Y231136*
X84874Y231448*
X83624*
X82999Y231761*
X82687Y232386*
X82999Y233011*
X83624Y233323*
X84874*
X85499Y233011*
X85812Y232386*
X90187Y229573D02*
X87687D01*
X89874Y231761*
X90187Y232386*
X89874Y233011*
X89249Y233323*
X88312*
X87687Y233011*
X98041Y112713D02*
X100541D01*
X99291Y111463D02*
Y113963D01*
X101978Y296746D02*
X70482D01*
Y286904*
X101978*
Y296746*
X103946Y98715D02*
X145285D01*
Y108557*
X103946*
Y98715*
X107465Y290435D02*
X107153Y290122D01*
X106528Y289809*
X105590*
X104965Y290122*
X104653Y290435*
X104340Y291059*
Y292309*
X104653Y292935*
X104965Y293247*
X105590Y293559*
X106528*
X107153Y293247*
X107465Y292935*
X109340Y291059D02*
Y292309D01*
X109653Y292935*
X109965Y293247*
X110590Y293559*
X111215*
X111840Y293247*
X112153Y292935*
X112465Y292309*
Y291059*
X112153Y290435*
X111840Y290122*
X111215Y289809*
X110590*
X109965Y290122*
X109653Y290435*
X109340Y291059*
X114340Y289809D02*
Y293559D01*
X117465Y289809*
Y293559*
X119340Y289809D02*
Y293559D01*
X122465Y289809*
Y293559*
X124653Y290122D02*
X125278Y289809D01*
X125903*
X126528Y290122*
X126840Y290747*
X126528Y291372*
X125903Y291685*
X125278*
X125903D02*
X126528Y291997D01*
X126840Y292622*
X126528Y293247*
X125903Y293559*
X125278*
X124653Y293247*
X107883Y282748D02*
X105383D01*
X106633Y283998D02*
Y281498D01*
X115339Y93191D02*
X115027Y92878D01*
X114402Y92565*
X113464*
X112839Y92878*
X112527Y93191*
X112214Y93815*
Y95065*
X112527Y95691*
X112839Y96003*
X113464Y96315*
X114402*
X115027Y96003*
X115339Y95691*
X117214Y93815D02*
Y95065D01*
X117527Y95691*
X117839Y96003*
X118464Y96315*
X119089*
X119714Y96003*
X120027Y95691*
X120339Y95065*
Y93815*
X120027Y93191*
X119714Y92878*
X119089Y92565*
X118464*
X117839Y92878*
X117527Y93191*
X117214Y93815*
X122214Y92565D02*
Y96315D01*
X125339Y92565*
Y96315*
X127214Y92565D02*
Y96315D01*
X130339Y92565*
Y96315*
X133777Y92565D02*
Y96315D01*
X132214Y93815*
X134714*
X120851Y115238D02*
X120539Y114925D01*
X119913Y114613*
X118976*
X118351Y114925*
X118039Y115238*
X117726Y115863*
Y117113*
X118039Y117738*
X118351Y118050*
X118976Y118363*
X119913*
X120539Y118050*
X120851Y117738*
X123351Y114613D02*
X124601D01*
X123976D02*
Y118363D01*
X123351Y117738*
X128039Y114925D02*
X128663Y114613D01*
X129289*
X129913Y114925*
X130226Y115550*
Y117425*
X129913Y118050*
X129289Y118363*
X128663*
X128039Y118050*
X127726Y117425*
Y115550*
X128039Y114925*
X129913Y118050*
X133663Y114613D02*
X134289Y114925D01*
X134913Y115550*
X135226Y116488*
Y117425*
X134913Y118050*
X134289Y118363*
X133663*
X133039Y118050*
X132726Y117425*
X133039Y116800*
X133663Y116488*
X134289*
X134913Y116800*
X135226Y117425*
X122032Y207364D02*
X121720Y207051D01*
X121094Y206739*
X120157*
X119532Y207051*
X119220Y207364*
X118907Y207989*
Y209239*
X119220Y209864*
X119532Y210176*
X120157Y210489*
X121094*
X121720Y210176*
X122032Y209864*
X124532Y206739D02*
X125782D01*
X125157D02*
Y210489D01*
X124532Y209864*
X128907Y207051D02*
X129532Y206739D01*
X130470*
X131094Y207051*
X131407Y207676*
Y207989*
X131094Y208614*
X130470Y208926*
X128907*
Y210489*
X131407*
X119569Y120018D02*
X135569D01*
Y127018*
X119569*
Y120018*
X124856Y229156D02*
Y213156D01*
X131856*
Y229156*
X124856*
X143410Y208218D02*
X143098Y207906D01*
X142472Y207593*
X141535*
X140910Y207906*
X140598Y208218*
X140285Y208843*
Y210093*
X140598Y210718*
X140910Y211031*
X141535Y211343*
X142472*
X143098Y211031*
X143410Y210718*
X145285Y208531D02*
X145598Y209156D01*
X146222Y209468*
X146848*
X147472Y209156*
X147785Y208531*
X147472Y207906*
X146848Y207593*
X146222*
X145598Y207906*
X145285Y208531*
Y209468*
X145598Y210406*
X146222Y211031*
X146848Y211343*
X141785Y229156D02*
Y213156D01*
X148785*
Y229156*
X141785*
X147229Y294372D02*
X146917Y294059D01*
X146291Y293746*
X145354*
X144729Y294059*
X144417Y294372*
X144104Y294996*
Y296246*
X144417Y296872*
X144729Y297184*
X145354Y297496*
X146291*
X146917Y297184*
X147229Y296872*
X150041Y295622D02*
X150667D01*
X151291Y295934*
X151604Y296559*
X151291Y297184*
X150667Y297496*
X150041*
X149417Y297184*
X149104Y296559*
X149417Y295934*
X150041Y295622*
X149417Y295309*
X149104Y294684*
X149417Y294059*
X150041Y293746*
X150667*
X151291Y294059*
X151604Y294684*
X151291Y295309*
X150667Y295622*
X151954Y58151D02*
X151641Y57839D01*
X151016Y57526*
X150078*
X149454Y57839*
X149141Y58151*
X148828Y58776*
Y60026*
X149141Y60651*
X149454Y60964*
X150078Y61276*
X151016*
X151641Y60964*
X151954Y60651*
X154454Y57526D02*
X155704D01*
X155078D02*
Y61276D01*
X154454Y60651*
X159454Y57526D02*
X160704D01*
X160078D02*
Y61276D01*
X159454Y60651*
X166328Y57526D02*
X163828D01*
X166016Y59714*
X166328Y60339*
X166016Y60964*
X165391Y61276*
X164454*
X163828Y60964*
X151541Y276148D02*
Y292148D01*
X144541*
Y276148*
X151541*
X159040Y294372D02*
X158728Y294059D01*
X158102Y293746*
X157165*
X156540Y294059*
X156228Y294372*
X155915Y294996*
Y296246*
X156228Y296872*
X156540Y297184*
X157165Y297496*
X158102*
X158728Y297184*
X159040Y296872*
X161540Y293746D02*
X162790D01*
X162165D02*
Y297496D01*
X161540Y296872*
X165915Y294684D02*
X166228Y295309D01*
X166852Y295622*
X167478*
X168102Y295309*
X168415Y294684*
X168102Y294059*
X167478Y293746*
X166852*
X166228Y294059*
X165915Y294684*
Y295622*
X166228Y296559*
X166852Y297184*
X167478Y297496*
X155915Y321306D02*
Y325056D01*
X157790*
X158415Y324743*
X158728Y324431*
X159040Y323806*
Y322556*
X158728Y321931*
X158415Y321618*
X157790Y321306*
X155915*
X160915Y321618D02*
X161540Y321306D01*
X162478*
X163102Y321618*
X163415Y322243*
Y322556*
X163102Y323181*
X162478Y323493*
X160915*
Y325056*
X163415*
X155915Y342959D02*
Y346709D01*
X157790*
X158415Y346397*
X158728Y346084*
X159040Y345459*
Y344209*
X158728Y343584*
X158415Y343272*
X157790Y342959*
X155915*
X162478D02*
Y346709D01*
X160915Y344209*
X163415*
X162608Y184148D02*
Y182573D01*
X164970Y180211*
X166545*
X162608Y255014D02*
Y258951D01*
X166545*
X165883Y56545D02*
X149883D01*
Y49545*
X165883*
Y56545*
X166108Y276935D02*
Y292935D01*
X159108*
Y276935*
X166108*
X178725Y295553D02*
X178413Y295240D01*
X177787Y294928*
X176850*
X176225Y295240*
X175913Y295553*
X175600Y296178*
Y297428*
X175913Y298053*
X176225Y298365*
X176850Y298678*
X177787*
X178413Y298365*
X178725Y298053*
X183100Y294928D02*
X180600D01*
X182787Y297115*
X183100Y297740*
X182787Y298365*
X182163Y298678*
X181225*
X180600Y298365*
X186225Y294928D02*
X187475D01*
X186850D02*
Y298678D01*
X186225Y298053*
X179119Y143257D02*
X178806Y142945D01*
X178181Y142632*
X177244*
X176619Y142945*
X176306Y143257*
X175994Y143882*
Y145132*
X176306Y145757*
X176619Y146070*
X177244Y146382*
X178181*
X178806Y146070*
X179119Y145757*
X181619Y142632D02*
X182869D01*
X182244D02*
Y146382D01*
X181619Y145757*
X187556Y142632D02*
Y146382D01*
X185994Y143882*
X188494*
X181481Y58545D02*
X181169Y58232D01*
X180543Y57920*
X179606*
X178981Y58232*
X178669Y58545*
X178356Y59170*
Y60420*
X178669Y61045*
X178981Y61357*
X179606Y61670*
X180543*
X181169Y61357*
X181481Y61045*
X183981Y57920D02*
X185231D01*
X184606D02*
Y61670D01*
X183981Y61045*
X188981Y57920D02*
X190231D01*
X189606D02*
Y61670D01*
X188981Y61045*
X193981Y57920D02*
X195231D01*
X194606D02*
Y61670D01*
X193981Y61045*
X178624Y49939D02*
X194624D01*
Y56939*
X178624*
Y49939*
X181549Y164195D02*
Y148195D01*
X188549*
Y164195*
X181549*
X184612Y276935D02*
Y292935D01*
X177612*
Y276935*
X184612*
X188986Y321374D02*
Y322624D01*
X189298Y323250*
X189611Y323562*
X190236Y323874*
X190861*
X191486Y323562*
X191798Y323250*
X192111Y322624*
Y321374*
X191798Y320750*
X191486Y320437*
X190861Y320124*
X190236*
X189611Y320437*
X189298Y320750*
X188986Y321374*
X191173Y321062D02*
X192111Y320124D01*
X194611D02*
X195861D01*
X195236D02*
Y323874D01*
X194611Y323250*
X194473Y143257D02*
X194161Y142945D01*
X193535Y142632*
X192598*
X191973Y142945*
X191661Y143257*
X191348Y143882*
Y145132*
X191661Y145757*
X191973Y146070*
X192598Y146382*
X193535*
X194161Y146070*
X194473Y145757*
X196348Y142945D02*
X196973Y142632D01*
X197911*
X198535Y142945*
X198848Y143570*
Y143882*
X198535Y144507*
X197911Y144820*
X196348*
Y146382*
X198848*
X191391Y164195D02*
Y148195D01*
X198391*
Y164195*
X191391*
X192403Y276711D02*
X208403D01*
Y283711*
X192403*
Y276711*
X197254Y289229D02*
Y285479D01*
X200379*
X203816D02*
Y289229D01*
X202254Y286729*
X204754*
X212190Y295159D02*
X211877Y294846D01*
X211252Y294534*
X210315*
X209690Y294846*
X209377Y295159*
X209065Y295784*
Y297034*
X209377Y297659*
X209690Y297972*
X210315Y298284*
X211252*
X211877Y297972*
X212190Y297659*
X216565Y294534D02*
X214065D01*
X216252Y296722*
X216565Y297346*
X216252Y297972*
X215627Y298284*
X214690*
X214065Y297972*
X221565Y294534D02*
X219065D01*
X221252Y296722*
X221565Y297346*
X221252Y297972*
X220627Y298284*
X219690*
X219065Y297972*
X219276Y105431D02*
X218964Y105118D01*
X218339Y104806*
X217401*
X216776Y105118*
X216464Y105431*
X216151Y106056*
Y107306*
X216464Y107931*
X216776Y108243*
X217401Y108556*
X218339*
X218964Y108243*
X219276Y107931*
X223651Y104806D02*
X221151D01*
X223339Y106993*
X223651Y107618*
X223339Y108243*
X222714Y108556*
X221776*
X221151Y108243*
X226151Y105118D02*
X226776Y104806D01*
X227714*
X228339Y105118*
X228651Y105743*
Y106056*
X228339Y106681*
X227714Y106993*
X226151*
Y108556*
X228651*
X219631Y131368D02*
Y109368D01*
X227631*
Y131368*
X219631*
X220482Y322487D02*
Y326237D01*
X222357*
X222982Y325924*
X223294Y325612*
X223607Y324987*
Y323737*
X223294Y323112*
X222982Y322799*
X222357Y322487*
X220482*
X225794Y322799D02*
X226419Y322487D01*
X227044*
X227669Y322799*
X227982Y323424*
X227669Y324049*
X227044Y324362*
X226419*
X227044D02*
X227669Y324674D01*
X227982Y325299*
X227669Y325924*
X227044Y326237*
X226419*
X225794Y325924*
X224376Y276935D02*
Y292935D01*
X217376*
Y276935*
X224376*
X229119Y294372D02*
X228806Y294059D01*
X228181Y293746*
X227244*
X226619Y294059*
X226306Y294372*
X225994Y294996*
Y296246*
X226306Y296872*
X226619Y297184*
X227244Y297496*
X228181*
X228806Y297184*
X229119Y296872*
X231619Y293746D02*
X232869D01*
X232244D02*
Y297496D01*
X231619Y296872*
X238494Y293746D02*
X235994D01*
X238181Y295934*
X238494Y296559*
X238181Y297184*
X237556Y297496*
X236619*
X235994Y297184*
X228159Y142022D02*
Y154620D01*
X238002*
Y142022*
X228159*
X232624Y131368D02*
Y109368D01*
X240624*
Y131368*
X232624*
X236206Y105431D02*
X235893Y105118D01*
X235268Y104806*
X234330*
X233706Y105118*
X233393Y105431*
X233080Y106056*
Y107306*
X233393Y107931*
X233706Y108243*
X234330Y108556*
X235268*
X235893Y108243*
X236206Y107931*
X240580Y104806D02*
X238080D01*
X240268Y106993*
X240580Y107618*
X240268Y108243*
X239643Y108556*
X238706*
X238080Y108243*
X243080Y105743D02*
X243393Y106368D01*
X244018Y106681*
X244643*
X245268Y106368*
X245580Y105743*
X245268Y105118*
X244643Y104806*
X244018*
X243393Y105118*
X243080Y105743*
Y106681*
X243393Y107618*
X244018Y108243*
X244643Y108556*
X237411Y180211D02*
X241348D01*
Y183360*
X237805Y142022D02*
X228356D01*
Y154620*
X237805*
Y142022*
X237998Y276541D02*
Y292541D01*
X230998*
Y276541*
X237998*
X241348Y255014D02*
Y258951D01*
X237411*
X244985Y154281D02*
X244672Y153969D01*
X244047Y153656*
X243110*
X242485Y153969*
X242172Y154281*
X241860Y154906*
Y156156*
X242172Y156781*
X242485Y157094*
X243110Y157406*
X244047*
X244672Y157094*
X244985Y156781*
X249360Y153656D02*
X246860D01*
X249047Y155844*
X249360Y156469*
X249047Y157094*
X248422Y157406*
X247485*
X246860Y157094*
X252172Y153969D02*
X252797Y153656D01*
X253422*
X254047Y153969*
X254360Y154594*
Y156469*
X254047Y157094*
X253422Y157406*
X252797*
X252172Y157094*
X251860Y156469*
Y154594*
X252172Y153969*
X254047Y157094*
X246442Y294372D02*
X246129Y294059D01*
X245504Y293746*
X244567*
X243942Y294059*
X243629Y294372*
X243317Y294996*
Y296246*
X243629Y296872*
X243942Y297184*
X244567Y297496*
X245504*
X246129Y297184*
X246442Y296872*
X248942Y293746D02*
X250192D01*
X249567D02*
Y297496D01*
X248942Y296872*
X253942Y293746D02*
X255192D01*
X254567D02*
Y297496D01*
X253942Y296872*
X243360Y175219D02*
Y159219D01*
X250360*
Y175219*
X243360*
X251678Y194832D02*
X251365Y194520D01*
X250740Y194207*
X249803*
X249178Y194520*
X248865Y194832*
X248553Y195457*
Y196707*
X248865Y197332*
X249178Y197645*
X249803Y197957*
X250740*
X251365Y197645*
X251678Y197332*
X255115Y194207D02*
Y197957D01*
X253553Y195457*
X256053*
X248785Y276541D02*
Y292541D01*
X241785*
Y276541*
X248785*
X250053Y215770D02*
Y199770D01*
X257053*
Y215770*
X250053*
X253528Y221931D02*
X253216Y221618D01*
X252591Y221306*
X251653*
X251028Y221618*
X250716Y221931*
X250403Y222556*
Y223806*
X250716Y224431*
X251028Y224743*
X251653Y225056*
X252591*
X253216Y224743*
X253528Y224431*
X256028Y221306D02*
X257278D01*
X256653D02*
Y225056D01*
X256028Y224431*
X261341Y223181D02*
X261966D01*
X262591Y223493*
X262903Y224118*
X262591Y224743*
X261966Y225056*
X261341*
X260716Y224743*
X260403Y224118*
X260716Y223493*
X261341Y223181*
X260716Y222868*
X260403Y222243*
X260716Y221618*
X261341Y221306*
X261966*
X262591Y221618*
X262903Y222243*
X262591Y222868*
X261966Y223181*
X254709Y114057D02*
X254397Y113744D01*
X253772Y113431*
X252834*
X252209Y113744*
X251897Y114057*
X251584Y114681*
Y115931*
X251897Y116557*
X252209Y116869*
X252834Y117181*
X253772*
X254397Y116869*
X254709Y116557*
X257209Y113431D02*
X258459D01*
X257834D02*
Y117181D01*
X257209Y116557*
X261584Y113431D02*
X264084Y117181D01*
X261584*
X254788Y144439D02*
X254476Y144126D01*
X253850Y143813*
X252913*
X252288Y144126*
X251976Y144439*
X251663Y145063*
Y146313*
X251976Y146939*
X252288Y147251*
X252913Y147563*
X253850*
X254476Y147251*
X254788Y146939*
X259163Y143813D02*
X256663D01*
X258850Y146001*
X259163Y146626*
X258850Y147251*
X258226Y147563*
X257288*
X256663Y147251*
X262600Y143813D02*
X263226Y144126D01*
X263850Y144751*
X264163Y145689*
Y146626*
X263850Y147251*
X263226Y147563*
X262600*
X261976Y147251*
X261663Y146626*
X261976Y146001*
X262600Y145689*
X263226*
X263850Y146001*
X264163Y146626*
X255103Y168781D02*
X254791Y168469D01*
X254165Y168156*
X253228*
X252603Y168469*
X252291Y168781*
X251978Y169406*
Y170656*
X252291Y171281*
X252603Y171594*
X253228Y171906*
X254165*
X254791Y171594*
X255103Y171281*
X257603Y168156D02*
X258853D01*
X258228D02*
Y171906D01*
X257603Y171281*
X262291Y168469D02*
X262915Y168156D01*
X263541*
X264165Y168469*
X264478Y169094*
X264165Y169719*
X263541Y170031*
X262915*
X263541D02*
X264165Y170344D01*
X264478Y170969*
X264165Y171594*
X263541Y171906*
X262915*
X262291Y171594*
X252021Y137030D02*
Y121030D01*
X259021*
Y137030*
X252021*
X253202Y242541D02*
Y226541D01*
X260202*
Y242541*
X253202*
X256352Y165376D02*
Y149376D01*
X263352*
Y165376*
X256352*
Y188998D02*
Y172998D01*
X263352*
Y188998*
X256352*
X260733Y194439D02*
X260420Y194126D01*
X259795Y193813*
X258858*
X258233Y194126*
X257920Y194439*
X257608Y195063*
Y196313*
X257920Y196939*
X258233Y197251*
X258858Y197563*
X259795*
X260420Y197251*
X260733Y196939*
X265108Y193813D02*
X262608D01*
X264795Y196001*
X265108Y196626*
X264795Y197251*
X264170Y197563*
X263233*
X262608Y197251*
X258277Y259701D02*
Y255951D01*
X261402*
X265777D02*
X263277D01*
X265465Y258139*
X265777Y258764*
X265465Y259389*
X264840Y259701*
X263902*
X263277Y259389*
X259108Y215376D02*
Y199376D01*
X266108*
Y215376*
X259108*
X263439Y242541D02*
Y226541D01*
X270439*
Y242541*
X263439*
X269670Y221931D02*
X269357Y221618D01*
X268732Y221306*
X267795*
X267170Y221618*
X266857Y221931*
X266545Y222556*
Y223806*
X266857Y224431*
X267170Y224743*
X267795Y225056*
X268732*
X269357Y224743*
X269670Y224431*
X271545Y221306D02*
X274045Y225056D01*
X271545*
X268238Y171579D02*
Y167829D01*
X271363*
X273238Y168142D02*
X273863Y167829D01*
X274800*
X275425Y168142*
X275738Y168767*
Y169079*
X275425Y169704*
X274800Y170017*
X273238*
Y171579*
X275738*
X271757Y194832D02*
X271444Y194520D01*
X270819Y194207*
X269881*
X269257Y194520*
X268944Y194832*
X268631Y195457*
Y196707*
X268944Y197332*
X269257Y197645*
X269881Y197957*
X270819*
X271444Y197645*
X271757Y197332*
X274257Y194207D02*
X275507D01*
X274881D02*
Y197957D01*
X274257Y197332*
X279569Y194207D02*
X280194Y194520D01*
X280819Y195145*
X281131Y196082*
Y197020*
X280819Y197645*
X280194Y197957*
X279569*
X278944Y197645*
X278631Y197020*
X278944Y196395*
X279569Y196082*
X280194*
X280819Y196395*
X281131Y197020*
X269738Y189392D02*
Y173392D01*
X276738*
Y189392*
X269738*
X270131Y215770D02*
Y199770D01*
X277131*
Y215770*
X270131*
X270608Y254577D02*
X254608D01*
Y247577*
X270608*
Y254577*
X274394Y279411D02*
X274082Y279098D01*
X273457Y278786*
X272519*
X271894Y279098*
X271582Y279411*
X271269Y280036*
Y281286*
X271582Y281911*
X271894Y282224*
X272519Y282536*
X273457*
X274082Y282224*
X274394Y281911*
X278769Y278786D02*
X276269D01*
X278457Y280974*
X278769Y281598*
X278457Y282224*
X277832Y282536*
X276894*
X276269Y282224*
X281269Y278786D02*
X283769Y282536D01*
X281269*
X277624Y250927D02*
Y244927D01*
X283056Y159399D02*
X282743Y159087D01*
X282118Y158774*
X281181*
X280556Y159087*
X280243Y159399*
X279931Y160024*
Y161274*
X280243Y161899*
X280556Y162212*
X281181Y162524*
X282118*
X282743Y162212*
X283056Y161899*
X287431Y158774D02*
X284931D01*
X287118Y160962*
X287431Y161587*
X287118Y162212*
X286493Y162524*
X285556*
X284931Y162212*
X290243Y159087D02*
X290868Y158774D01*
X291493*
X292118Y159087*
X292431Y159712*
X292118Y160337*
X291493Y160649*
X290868*
X291493D02*
X292118Y160962D01*
X292431Y161587*
X292118Y162212*
X291493Y162524*
X290868*
X290243Y162212*
X280832Y260813D02*
Y276813D01*
X273832*
Y260813*
X280832*
X281899Y223668D02*
Y227418D01*
X284087*
X284712Y227106*
X285024Y226480*
X284712Y225856*
X284087Y225543*
X281899*
X284087D02*
X285024Y223668D01*
X286899D02*
Y227418D01*
X290024*
X289399Y225543D02*
X286899D01*
Y223668D02*
X290024D01*
X291899Y224606D02*
X292212Y223980D01*
X292837Y223668*
X294087*
X294712Y223980*
X295024Y224606*
X294712Y225230*
X294087Y225543*
X292837*
X292212Y225856*
X291899Y226480*
X292212Y227106*
X292837Y227418*
X294087*
X294712Y227106*
X295024Y226480*
X296899Y223668D02*
Y227418D01*
X300024*
X299399Y225543D02*
X296899D01*
Y223668D02*
X300024D01*
X303462D02*
Y227418D01*
X301899D02*
X305024D01*
X282336Y180337D02*
Y164337D01*
X289336*
Y180337*
X282336*
X292111Y279805D02*
X291798Y279492D01*
X291173Y279180*
X290236*
X289611Y279492*
X289298Y279805*
X288986Y280430*
Y281680*
X289298Y282305*
X289611Y282617*
X290236Y282930*
X291173*
X291798Y282617*
X292111Y282305*
X296486Y279180D02*
X293986D01*
X296173Y281367*
X296486Y281992*
X296173Y282617*
X295548Y282930*
X294611*
X293986Y282617*
X299923Y281055D02*
X300548D01*
X301173Y281367*
X301486Y281992*
X301173Y282617*
X300548Y282930*
X299923*
X299298Y282617*
X298986Y281992*
X299298Y281367*
X299923Y281055*
X299298Y280742*
X298986Y280117*
X299298Y279492*
X299923Y279180*
X300548*
X301173Y279492*
X301486Y280117*
X301173Y280742*
X300548Y281055*
X289222Y135202D02*
X289535Y134890D01*
X290159Y134577*
X290785Y134890*
X291097Y135202*
Y138327*
X291722*
X291097D02*
X289847D01*
X294847Y134577D02*
X296097D01*
X295472D02*
Y138327D01*
X294847Y137702*
X292135Y231298D02*
X292448Y230673D01*
X293073Y230361*
X294323*
X294948Y230673*
X295261Y231298*
X294948Y231923*
X294323Y232236*
X293073*
X292448Y232548*
X292135Y233173*
X292448Y233798*
X293073Y234111*
X294323*
X294948Y233798*
X295261Y233173*
X297761Y230361D02*
X299011D01*
X298385D02*
Y234111D01*
X297761Y233486*
X295624Y250927D02*
Y244927D01*
X297336Y180337D02*
Y164337D01*
X304336*
Y180337*
X297336*
X297604Y261187D02*
Y277187D01*
X290604*
Y261187*
X297604*
X301166Y159332D02*
X300854Y159020D01*
X300228Y158707*
X299291*
X298666Y159020*
X298354Y159332*
X298041Y159957*
Y161207*
X298354Y161832*
X298666Y162145*
X299291Y162457*
X300228*
X300854Y162145*
X301166Y161832*
X305541Y158707D02*
X303041D01*
X305228Y160895*
X305541Y161520*
X305228Y162145*
X304604Y162457*
X303666*
X303041Y162145*
X309604Y158707D02*
Y162457D01*
X308041Y159957*
X310541*
X310221Y292403D02*
X309909Y292091D01*
X309283Y291778*
X308346*
X307721Y292091*
X307409Y292403*
X307096Y293028*
Y294278*
X307409Y294903*
X307721Y295216*
X308346Y295528*
X309283*
X309909Y295216*
X310221Y294903*
X312721Y291778D02*
X313971D01*
X313346D02*
Y295528D01*
X312721Y294903*
X317721Y291778D02*
X318971D01*
X318346D02*
Y295528D01*
X317721Y294903*
X322409Y292091D02*
X323033Y291778D01*
X323659*
X324283Y292091*
X324596Y292716*
Y294591*
X324283Y295216*
X323659Y295528*
X323033*
X322409Y295216*
X322096Y294591*
Y292716*
X322409Y292091*
X324283Y295216*
X308545Y297183D02*
X324545D01*
Y304183*
X308545*
Y297183*
X317741Y170423D02*
X317428Y170110D01*
X316803Y169798*
X315866*
X315241Y170110*
X314928Y170423*
X314616Y171048*
Y172298*
X314928Y172923*
X315241Y173235*
X315866Y173548*
X316803*
X317428Y173235*
X317741Y172923*
X320553Y169798D02*
X321178Y170110D01*
X321803Y170735*
X322116Y171673*
Y172610*
X321803Y173235*
X321178Y173548*
X320553*
X319928Y173235*
X319616Y172610*
X319928Y171985*
X320553Y171673*
X321178*
X321803Y171985*
X322116Y172610*
X316116Y191360D02*
Y175360D01*
X323116*
Y191360*
X316116*
X324293Y157026D02*
X340293D01*
Y164026*
X324293*
Y157026*
X327662Y170423D02*
X327350Y170110D01*
X326724Y169798*
X325787*
X325162Y170110*
X324850Y170423*
X324537Y171048*
Y172298*
X324850Y172923*
X325162Y173235*
X325787Y173548*
X326724*
X327350Y173235*
X327662Y172923*
X330162Y169798D02*
X331412D01*
X330787D02*
Y173548D01*
X330162Y172923*
X334850Y170110D02*
X335474Y169798D01*
X336100*
X336724Y170110*
X337037Y170735*
Y172610*
X336724Y173235*
X336100Y173548*
X335474*
X334850Y173235*
X334537Y172610*
Y170735*
X334850Y170110*
X336724Y173235*
X326037Y191360D02*
Y175360D01*
X333037*
Y191360*
X326037*
X333961Y202706D02*
X333649Y202394D01*
X333024Y202081*
X332086*
X331461Y202394*
X331149Y202706*
X330836Y203331*
Y204581*
X331149Y205206*
X331461Y205519*
X332086Y205831*
X333024*
X333649Y205519*
X333961Y205206*
X336149Y202394D02*
X336774Y202081D01*
X337399*
X338024Y202394*
X338336Y203019*
X338024Y203644*
X337399Y203956*
X336774*
X337399D02*
X338024Y204269D01*
X338336Y204894*
X338024Y205519*
X337399Y205831*
X336774*
X336149Y205519*
X341149Y202394D02*
X341774Y202081D01*
X342399*
X343024Y202394*
X343336Y203019*
Y204894*
X343024Y205519*
X342399Y205831*
X341774*
X341149Y205519*
X340836Y204894*
Y203019*
X341149Y202394*
X343024Y205519*
X334355Y46694D02*
X334043Y46382D01*
X333417Y46069*
X332480*
X331855Y46382*
X331543Y46694*
X331230Y47319*
Y48569*
X331543Y49194*
X331855Y49507*
X332480Y49819*
X333417*
X334043Y49507*
X334355Y49194*
X336230Y47319D02*
Y48569D01*
X336543Y49194*
X336855Y49507*
X337480Y49819*
X338105*
X338730Y49507*
X339043Y49194*
X339355Y48569*
Y47319*
X339043Y46694*
X338730Y46382*
X338105Y46069*
X337480*
X336855Y46382*
X336543Y46694*
X336230Y47319*
X341230Y46069D02*
Y49819D01*
X344355Y46069*
Y49819*
X346230Y46069D02*
Y49819D01*
X349355Y46069*
Y49819*
X353730Y46069D02*
X351230D01*
X353417Y48257*
X353730Y48882*
X353417Y49507*
X352793Y49819*
X351855*
X351230Y49507*
X332336Y223644D02*
Y207644D01*
X339336*
Y223644*
X332336*
X334018Y143746D02*
X335268D01*
X334643D02*
Y147496D01*
X334018D02*
X335268D01*
X341206Y144372D02*
X340893Y144059D01*
X340268Y143746*
X339330*
X338706Y144059*
X338393Y144372*
X338080Y144996*
Y146246*
X338393Y146872*
X338706Y147184*
X339330Y147496*
X340268*
X340893Y147184*
X341206Y146872*
X343080Y144059D02*
X343706Y143746D01*
X344643*
X345268Y144059*
X345580Y144684*
Y144996*
X345268Y145622*
X344643Y145934*
X343080*
Y147496*
X345580*
X344498Y196709D02*
Y192959D01*
X347623*
X349810Y193272D02*
X350435Y192959D01*
X351060*
X351685Y193272*
X351998Y193897*
X351685Y194522*
X351060Y194834*
X350435*
X351060D02*
X351685Y195147D01*
X351998Y195772*
X351685Y196397*
X351060Y196709*
X350435*
X349810Y196397*
X347472Y347278D02*
X348410D01*
Y346965*
X348098Y346340*
X347785Y346028*
X347160Y345715*
X346535*
X345910Y346028*
X345598Y346340*
X345285Y346965*
Y348215*
X345598Y348840*
X345910Y349153*
X346535Y349465*
X347160*
X347785Y349153*
X348098Y348840*
X348410Y348215*
X350285Y345715D02*
Y349465D01*
X353410*
X352785Y347590D02*
X350285D01*
Y345715D02*
X353410D01*
X355285D02*
Y349465D01*
X358410Y345715*
Y349465*
X367785Y345715D02*
X365285D01*
X367472Y347903*
X367785Y348528*
X367472Y349153*
X366848Y349465*
X365910*
X365285Y349153*
X378410Y346340D02*
X378098Y346028D01*
X377472Y345715*
X376535*
X375910Y346028*
X375598Y346340*
X375285Y346965*
Y348215*
X375598Y348840*
X375910Y349153*
X376535Y349465*
X377472*
X378098Y349153*
X378410Y348840*
X380285Y345715D02*
Y349465D01*
Y347590D02*
X383410D01*
Y345715D02*
Y349465D01*
X385285Y345715D02*
X386848Y349465D01*
X388410Y345715*
X385910Y347278D02*
X387785D01*
X390285Y345715D02*
Y349465D01*
X392472*
X393098Y349153*
X393410Y348528*
X393098Y347903*
X392472Y347590*
X390285*
X392472D02*
X393410Y345715D01*
X397472Y347278D02*
X398410D01*
Y346965*
X398098Y346340*
X397785Y346028*
X397160Y345715*
X396535*
X395910Y346028*
X395598Y346340*
X395285Y346965*
Y348215*
X395598Y348840*
X395910Y349153*
X396535Y349465*
X397160*
X397785Y349153*
X398098Y348840*
X398410Y348215*
X400285Y345715D02*
Y349465D01*
X403410*
X402785Y347590D02*
X400285D01*
Y345715D02*
X403410D01*
X405285D02*
Y349465D01*
X407472*
X408098Y349153*
X408410Y348528*
X408098Y347903*
X407472Y347590*
X405285*
X407472D02*
X408410Y345715D01*
X415285Y349465D02*
Y345715D01*
X418410*
X420285Y346965D02*
Y348215D01*
X420598Y348840*
X420910Y349153*
X421535Y349465*
X422160*
X422785Y349153*
X423098Y348840*
X423410Y348215*
Y346965*
X423098Y346340*
X422785Y346028*
X422160Y345715*
X421535*
X420910Y346028*
X420598Y346340*
X420285Y346965*
X427472Y347278D02*
X428410D01*
Y346965*
X428098Y346340*
X427785Y346028*
X427160Y345715*
X426535*
X425910Y346028*
X425598Y346340*
X425285Y346965*
Y348215*
X425598Y348840*
X425910Y349153*
X426535Y349465*
X427160*
X427785Y349153*
X428098Y348840*
X428410Y348215*
X431222Y345715D02*
X432472D01*
X431848D02*
Y349465D01*
X431222D02*
X432472D01*
X438410Y346340D02*
X438098Y346028D01*
X437472Y345715*
X436535*
X435910Y346028*
X435598Y346340*
X435285Y346965*
Y348215*
X435598Y348840*
X435910Y349153*
X436535Y349465*
X437472*
X438098Y349153*
X438410Y348840*
X447472Y347590D02*
X448098Y347278D01*
X448410Y346653*
X448098Y346028*
X447472Y345715*
X445285*
Y349465*
X447472*
X448098Y349153*
X448410Y348528*
X448098Y347903*
X447472Y347590*
X445285*
X450285Y346965D02*
Y348215D01*
X450598Y348840*
X450910Y349153*
X451535Y349465*
X452160*
X452785Y349153*
X453098Y348840*
X453410Y348215*
Y346965*
X453098Y346340*
X452785Y346028*
X452160Y345715*
X451535*
X450910Y346028*
X450598Y346340*
X450285Y346965*
X455285Y345715D02*
X456848Y349465D01*
X458410Y345715*
X455910Y347278D02*
X457785D01*
X460285Y345715D02*
Y349465D01*
X462472*
X463098Y349153*
X463410Y348528*
X463098Y347903*
X462472Y347590*
X460285*
X462472D02*
X463410Y345715D01*
X465285D02*
Y349465D01*
X467160*
X467785Y349153*
X468098Y348840*
X468410Y348215*
Y346965*
X468098Y346340*
X467785Y346028*
X467160Y345715*
X465285*
X475285Y349465D02*
X476848Y345715D01*
X478410Y349465*
X481848Y345715D02*
Y349465D01*
X480285Y346965*
X482785*
X355278Y309494D02*
X356528D01*
X355903D02*
Y313244D01*
X355278D02*
X356528D01*
X362465Y310120D02*
X362153Y309807D01*
X361528Y309494*
X360590*
X359965Y309807*
X359653Y310120*
X359340Y310744*
Y311994*
X359653Y312620*
X359965Y312932*
X360590Y313244*
X361528*
X362153Y312932*
X362465Y312620*
X364340Y309494D02*
X366840Y313244D01*
X364340*
X359040Y270356D02*
X358728Y270043D01*
X358102Y269731*
X357165*
X356540Y270043*
X356228Y270356*
X355915Y270981*
Y272231*
X356228Y272856*
X356540Y273169*
X357165Y273481*
X358102*
X358728Y273169*
X359040Y272856*
X361228Y270043D02*
X361852Y269731D01*
X362478*
X363102Y270043*
X363415Y270669*
X363102Y271293*
X362478Y271606*
X361852*
X362478D02*
X363102Y271919D01*
X363415Y272543*
X363102Y273169*
X362478Y273481*
X361852*
X361228Y273169*
X356317Y191585D02*
X340317D01*
Y184585*
X356317*
Y191585*
X366370Y249108D02*
Y246608D01*
X365120Y247858D02*
X367620D01*
X364655Y265821D02*
G75*
G03X354813Y250073I-4921J-7874D01*
G01*
G75*
G03X364655Y265821I4921J7874*
G01*
X370851Y338072D02*
X370539Y337760D01*
X369913Y337447*
X368976*
X368351Y337760*
X368039Y338072*
X367726Y338697*
Y339947*
X368039Y340572*
X368351Y340885*
X368976Y341197*
X369913*
X370539Y340885*
X370851Y340572*
X372726Y338697D02*
Y339947D01*
X373039Y340572*
X373351Y340885*
X373976Y341197*
X374601*
X375226Y340885*
X375539Y340572*
X375851Y339947*
Y338697*
X375539Y338072*
X375226Y337760*
X374601Y337447*
X373976*
X373351Y337760*
X373039Y338072*
X372726Y338697*
X377726Y337447D02*
Y341197D01*
X379913*
X380539Y340885*
X380851Y340260*
X380539Y339635*
X379913Y339322*
X377726*
X384289Y337447D02*
Y339322D01*
X382726Y341197*
X384289Y339322D02*
X385851Y341197D01*
X387726Y337447D02*
Y341197D01*
X389913*
X390539Y340885*
X390851Y340260*
X390539Y339635*
X389913Y339322*
X387726*
X389913D02*
X390851Y337447D01*
X393663D02*
X394913D01*
X394289D02*
Y341197D01*
X393663D02*
X394913D01*
X399913Y339010D02*
X400851D01*
Y338697*
X400539Y338072*
X400226Y337760*
X399601Y337447*
X398976*
X398351Y337760*
X398039Y338072*
X397726Y338697*
Y339947*
X398039Y340572*
X398351Y340885*
X398976Y341197*
X399601*
X400226Y340885*
X400539Y340572*
X400851Y339947*
X402726Y337447D02*
Y341197D01*
Y339322D02*
X405851D01*
Y337447D02*
Y341197D01*
X409289Y337447D02*
Y341197D01*
X407726D02*
X410851D01*
X420226Y337447D02*
X417726D01*
X419913Y339635*
X420226Y340260*
X419913Y340885*
X419289Y341197*
X418351*
X417726Y340885*
X423039Y337760D02*
X423663Y337447D01*
X424289*
X424913Y337760*
X425226Y338385*
Y340260*
X424913Y340885*
X424289Y341197*
X423663*
X423039Y340885*
X422726Y340260*
Y338385*
X423039Y337760*
X424913Y340885*
X428351Y337447D02*
X429601D01*
X428976D02*
Y341197D01*
X428351Y340572*
X433663Y337447D02*
X434289Y337760D01*
X434913Y338385*
X435226Y339322*
Y340260*
X434913Y340885*
X434289Y341197*
X433663*
X433039Y340885*
X432726Y340260*
X433039Y339635*
X433663Y339322*
X434289*
X434913Y339635*
X435226Y340260*
X371143Y177104D02*
X387143D01*
Y184104*
X371143*
Y177104*
X375576Y171931D02*
X375263Y171618D01*
X374638Y171306*
X373700*
X373076Y171618*
X372763Y171931*
X372450Y172556*
Y173806*
X372763Y174431*
X373076Y174743*
X373700Y175056*
X374638*
X375263Y174743*
X375576Y174431*
X377763Y171618D02*
X378388Y171306D01*
X379013*
X379638Y171618*
X379950Y172243*
X379638Y172868*
X379013Y173181*
X378388*
X379013D02*
X379638Y173493D01*
X379950Y174118*
X379638Y174743*
X379013Y175056*
X378388*
X377763Y174743*
X382450Y171306D02*
X384950Y175056D01*
X382450*
X374380Y190725D02*
Y186975D01*
X377505*
X380005D02*
X381255D01*
X380630D02*
Y190725D01*
X380005Y190100*
X375600Y194384D02*
X422844D01*
X379906Y275080D02*
X379594Y274768D01*
X378969Y274455*
X378031*
X377406Y274768*
X377094Y275080*
X376781Y275705*
Y276955*
X377094Y277580*
X377406Y277893*
X378031Y278205*
X378969*
X379594Y277893*
X379906Y277580*
X382406Y274455D02*
X383656D01*
X383031D02*
Y278205D01*
X382406Y277580*
X380592Y300333D02*
X396592D01*
Y307333*
X380592*
Y300333*
X385418Y308939D02*
X385106Y308626D01*
X384480Y308313*
X383543*
X382918Y308626*
X382606Y308939*
X382293Y309563*
Y310813*
X382606Y311439*
X382918Y311751*
X383543Y312063*
X384480*
X385106Y311751*
X385418Y311439*
X387606Y308626D02*
X388230Y308313D01*
X388856*
X389480Y308626*
X389793Y309251*
X389480Y309876*
X388856Y310189*
X388230*
X388856D02*
X389480Y310501D01*
X389793Y311126*
X389480Y311751*
X388856Y312063*
X388230*
X387606Y311751*
X394793Y308313D02*
X392293D01*
X394480Y310501*
X394793Y311126*
X394480Y311751*
X393856Y312063*
X392918*
X392293Y311751*
X383431Y256856D02*
Y272856D01*
X376431*
Y256856*
X383431*
X389284Y276381D02*
Y262781D01*
X413884*
Y276381*
X389284*
X391584Y291268D02*
Y287518D01*
X394709*
X396584D02*
Y291268D01*
X398459*
X399084Y290956*
X399397Y290643*
X399709Y290018*
Y288768*
X399397Y288143*
X399084Y287831*
X398459Y287518*
X396584*
X402209D02*
X403459D01*
X402834D02*
Y291268D01*
X402209Y290643*
X394092Y329967D02*
Y333717D01*
X392529D02*
X395654D01*
X400029Y331530D02*
X399717Y332155D01*
X399092Y332467*
X398467*
X397842Y332155*
X397529Y331530*
Y330905*
X397842Y330280*
X398467Y329967*
X399092*
X399717Y330280*
X400029Y330905*
Y329967D02*
Y333717D01*
X404717Y331842D02*
X405342Y331530D01*
X405654Y330905*
X405342Y330280*
X404717Y329967*
X402529*
Y333717*
X404717*
X405342Y333405*
X405654Y332780*
X405342Y332155*
X404717Y331842*
X402529*
X399198Y125868D02*
X398885Y125555D01*
X398260Y125243*
X397322*
X396698Y125555*
X396385Y125868*
X396072Y126493*
Y127743*
X396385Y128368*
X396698Y128680*
X397322Y128993*
X398260*
X398885Y128680*
X399198Y128368*
X401698Y125243D02*
X402948D01*
X402322D02*
Y128993D01*
X401698Y128368*
X406385Y125555D02*
X407010Y125243D01*
X407635*
X408260Y125555*
X408572Y126180*
Y128055*
X408260Y128680*
X407635Y128993*
X407010*
X406385Y128680*
X406072Y128055*
Y126180*
X406385Y125555*
X408260Y128680*
X411072Y125243D02*
X413572Y128993D01*
X411072*
X409021Y107644D02*
Y123644D01*
X402021*
Y107644*
X409021*
X414970Y185085D02*
Y188835D01*
X416845*
X417470Y188523*
X417783Y188210*
X418095Y187585*
Y186335*
X417783Y185710*
X417470Y185398*
X416845Y185085*
X414970*
X422470D02*
X419970D01*
X422157Y187273*
X422470Y187898*
X422157Y188523*
X421533Y188835*
X420595*
X419970Y188523*
X422844Y241628D02*
X375600D01*
X429694Y169600D02*
X409694D01*
X440989Y179332D02*
X440676Y179020D01*
X440051Y178707*
X439114*
X438489Y179020*
X438176Y179332*
X437864Y179957*
Y181207*
X438176Y181832*
X438489Y182145*
X439114Y182457*
X440051*
X440676Y182145*
X440989Y181832*
X443176Y179020D02*
X443801Y178707D01*
X444426*
X445051Y179020*
X445364Y179645*
X445051Y180270*
X444426Y180582*
X443801*
X444426D02*
X445051Y180895D01*
X445364Y181520*
X445051Y182145*
X444426Y182457*
X443801*
X443176Y182145*
X447864Y179020D02*
X448489Y178707D01*
X449426*
X450051Y179020*
X450364Y179645*
Y179957*
X450051Y180582*
X449426Y180895*
X447864*
Y182457*
X450364*
X450403Y231935D02*
Y235685D01*
X452278*
X452903Y235373*
X453216Y235061*
X453528Y234435*
Y233185*
X453216Y232561*
X452903Y232248*
X452278Y231935*
X450403*
X456028D02*
X457278D01*
X456653D02*
Y235685D01*
X456028Y235061*
X464564Y12125D02*
X464252Y12437D01*
X463939Y13063*
Y14000*
X464252Y14625*
X464564Y14937*
X465189Y15250*
X466439*
X467064Y14937*
X467377Y14625*
X467689Y14000*
Y13063*
X467377Y12437*
X467064Y12125*
X464252Y9937D02*
X463939Y9313D01*
Y8687*
X464252Y8063*
X464877Y7750*
X465502Y8063*
X465814Y8687*
Y9313*
Y8687D02*
X466127Y8063D01*
X466752Y7750*
X467377Y8063*
X467689Y8687*
Y9313*
X467377Y9937*
X463939Y4625D02*
Y3375D01*
Y4000D02*
X467689D01*
X467064Y4625*
X463663Y123955D02*
X479663D01*
Y130955*
X463663*
Y123955*
X463946Y217632D02*
X443946D01*
X468095Y133348D02*
X467783Y133035D01*
X467157Y132723*
X466220*
X465595Y133035*
X465283Y133348*
X464970Y133973*
Y135223*
X465283Y135848*
X465595Y136161*
X466220Y136473*
X467157*
X467783Y136161*
X468095Y135848*
X470283Y133035D02*
X470907Y132723D01*
X471533*
X472157Y133035*
X472470Y133661*
X472157Y134285*
X471533Y134598*
X470907*
X471533D02*
X472157Y134911D01*
X472470Y135535*
X472157Y136161*
X471533Y136473*
X470907*
X470283Y136161*
X474970Y133661D02*
X475283Y134285D01*
X475907Y134598*
X476533*
X477157Y134285*
X477470Y133661*
X477157Y133035*
X476533Y132723*
X475907*
X475283Y133035*
X474970Y133661*
Y134598*
X475283Y135535*
X475907Y136161*
X476533Y136473*
X472150Y79872D02*
X471838Y79559D01*
X471213Y79246*
X470275*
X469650Y79559*
X469338Y79872*
X469025Y80496*
Y81746*
X469338Y82372*
X469650Y82684*
X470275Y82996*
X471213*
X471838Y82684*
X472150Y82372*
X474650Y79246D02*
X475900D01*
X475275D02*
Y82996D01*
X474650Y82372*
X479338Y79559D02*
X479963Y79246D01*
X480588*
X481213Y79559*
X481525Y80184*
Y82059*
X481213Y82684*
X480588Y82996*
X479963*
X479338Y82684*
X479025Y82059*
Y80184*
X479338Y79559*
X481213Y82684*
X484963Y81122D02*
X485588D01*
X486213Y81434*
X486525Y82059*
X486213Y82684*
X485588Y82996*
X484963*
X484338Y82684*
X484025Y82059*
X484338Y81434*
X484963Y81122*
X484338Y80809*
X484025Y80184*
X484338Y79559*
X484963Y79246*
X485588*
X486213Y79559*
X486525Y80184*
X486213Y80809*
X485588Y81122*
X470525Y100809D02*
Y84809D01*
X477525*
Y100809*
X470525*
X472808Y290348D02*
X472496Y290036D01*
X472183Y289411*
X472496Y288786*
X472808Y288473*
X475933*
Y287848*
Y288473D02*
Y289723D01*
X472183Y282848D02*
Y285348D01*
X474371Y283161*
X474996Y282848*
X475621Y283161*
X475933Y283786*
Y284723*
X475621Y285348*
X508427Y236660D02*
X509677D01*
X509052D02*
Y240410D01*
X508427D02*
X509677D01*
X515615Y237285D02*
X515302Y236972D01*
X514677Y236660*
X513740*
X513115Y236972*
X512802Y237285*
X512490Y237910*
Y239160*
X512802Y239785*
X513115Y240098*
X513740Y240410*
X514677*
X515302Y240098*
X515615Y239785*
X517490Y237598D02*
X517802Y238222D01*
X518427Y238535*
X519052*
X519677Y238222*
X519990Y237598*
X519677Y236972*
X519052Y236660*
X518427*
X517802Y236972*
X517490Y237598*
Y238535*
X517802Y239472*
X518427Y240098*
X519052Y240410*
X525261Y180474D02*
X524948Y180161D01*
X524323Y179849*
X523385*
X522761Y180161*
X522448Y180474*
X522135Y181099*
Y182349*
X522448Y182974*
X522761Y183287*
X523385Y183599*
X524323*
X524948Y183287*
X525261Y182974*
X527448Y180161D02*
X528073Y179849D01*
X528698*
X529323Y180161*
X529635Y180787*
X529323Y181411*
X528698Y181724*
X528073*
X528698D02*
X529323Y182037D01*
X529635Y182661*
X529323Y183287*
X528698Y183599*
X528073*
X527448Y183287*
X533073Y181724D02*
X533698D01*
X534323Y182037*
X534635Y182661*
X534323Y183287*
X533698Y183599*
X533073*
X532448Y183287*
X532135Y182661*
X532448Y182037*
X533073Y181724*
X532448Y181411*
X532135Y180787*
X532448Y180161*
X533073Y179849*
X533698*
X534323Y180161*
X534635Y180787*
X534323Y181411*
X533698Y181724*
D02*
D83*
X67332Y280811D02*
Y283211D01*
X68732*
X69132Y283011*
X69332Y282611*
X69132Y282211*
X68732Y282011*
X67332*
X70532Y281611D02*
Y282411D01*
X70732Y282811*
X70932Y283011*
X71332Y283211*
X71732*
X72132Y283011*
X72332Y282811*
X72532Y282411*
Y281611*
X72332Y281211*
X72132Y281011*
X71732Y280811*
X71332*
X70932Y281011*
X70732Y281211*
X70532Y281611*
X73732Y283211D02*
X73932Y280811D01*
X74732Y282011*
X75532Y280811*
X75732Y283211*
X76932Y280811D02*
Y283211D01*
X78932*
X78532Y282011D02*
X76932D01*
Y280811D02*
X78932D01*
X80132D02*
Y283211D01*
X81532*
X81932Y283011*
X82132Y282611*
X81932Y282211*
X81532Y282011*
X80132*
X81532D02*
X82132Y280811D01*
X86532D02*
Y283211D01*
X87532Y282011*
X88532Y283211*
Y280811*
X89732Y281611D02*
Y282411D01*
X89932Y282811*
X90132Y283011*
X90532Y283211*
X90932*
X91332Y283011*
X91532Y282811*
X91732Y282411*
Y281611*
X91532Y281211*
X91332Y281011*
X90932Y280811*
X90532*
X90132Y281011*
X89932Y281211*
X89732Y281611*
X92932Y280811D02*
Y283211D01*
X94132*
X94532Y283011*
X94732Y282811*
X94932Y282411*
Y281611*
X94732Y281211*
X94532Y281011*
X94132Y280811*
X92932*
X96132Y283211D02*
Y281411D01*
X96332Y281011*
X96732Y280811*
X97532*
X97932Y281011*
X98132Y281411*
Y283211*
X99332D02*
Y280811D01*
X101332*
X102532D02*
Y283211D01*
X104532*
X104132Y282011D02*
X102532D01*
Y280811D02*
X104532D01*
X78387Y276486D02*
X78187Y276286D01*
X77787Y276086*
X77187*
X76787Y276286*
X76587Y276486*
X76387Y276886*
Y277686*
X76587Y278086*
X76787Y278286*
X77187Y278486*
X77787*
X78187Y278286*
X78387Y278086*
X79587Y276086D02*
X80587Y278486D01*
X81587Y276086*
X79987Y277086D02*
X81187D01*
X82787Y276086D02*
Y278486D01*
X84787Y276086*
Y278486*
X87387Y277286D02*
X87787Y277086D01*
X87987Y276686*
X87787Y276286*
X87387Y276086*
X85987*
Y278486*
X87387*
X87787Y278286*
X87987Y277886*
X87787Y277486*
X87387Y277286*
X85987*
X89187Y278486D02*
Y276686D01*
X89387Y276286*
X89787Y276086*
X90587*
X90987Y276286*
X91187Y276686*
Y278486*
X92387Y276686D02*
X92587Y276286D01*
X92987Y276086*
X93787*
X94187Y276286*
X94387Y276686*
X94187Y277086*
X93787Y277286*
X92987*
X92587Y277486*
X92387Y277886*
X92587Y278286*
X92987Y278486*
X93787*
X94187Y278286*
X94387Y277886*
X257458Y277561D02*
X259858D01*
Y279561*
Y280761D02*
X257458D01*
Y282761*
X258658Y282361D02*
Y280761D01*
X259858D02*
Y282761D01*
Y283961D02*
X257458D01*
Y285161*
X257658Y285561*
X257858Y285761*
X258258Y285961*
X259058*
X259458Y285761*
X259658Y285561*
X259858Y285161*
Y283961*
Y287561D02*
Y288361D01*
Y287961D02*
X257458D01*
X257858Y287561*
X339380Y339116D02*
Y336716D01*
X341380*
X342580D02*
Y339116D01*
X344580*
X344180Y337916D02*
X342580D01*
Y336716D02*
X344580D01*
X345780D02*
Y339116D01*
X346980*
X347380Y338916*
X347580Y338716*
X347780Y338316*
Y337516*
X347580Y337116*
X347380Y336916*
X346980Y336716*
X345780*
X350580D02*
X348980D01*
X350380Y338116*
X350580Y338516*
X350380Y338916*
X349980Y339116*
X349380*
X348980Y338916*
D02*
D84*
X69082Y299927D02*
X69832D01*
Y299677*
X69582Y299177*
X69332Y298927*
X68832Y298677*
X68332*
X67832Y298927*
X67582Y299177*
X67332Y299677*
Y300677*
X67582Y301177*
X67832Y301427*
X68332Y301677*
X68832*
X69332Y301427*
X69582Y301177*
X69832Y300677*
X71332Y298677D02*
Y301677D01*
X73832Y298677*
Y301677*
X75332Y298677D02*
Y301677D01*
X76832*
X77332Y301427*
X77582Y301177*
X77832Y300677*
Y299677*
X77582Y299177*
X77332Y298927*
X76832Y298677*
X75332*
X83612Y299177D02*
X83362Y298927D01*
X82862Y298677*
X82112*
X81612Y298927*
X81362Y299177*
X81112Y299677*
Y300677*
X81362Y301177*
X81612Y301427*
X82112Y301677*
X82862*
X83362Y301427*
X83612Y301177*
X85112Y298677D02*
X86362Y301677D01*
X87612Y298677*
X85612Y299927D02*
X87112D01*
X89112Y298677D02*
Y301677D01*
X91612Y298677*
Y301677*
X93112D02*
Y298677D01*
X95612*
X102116Y299177D02*
X101866Y298927D01*
X101366Y298677*
X100616*
X100116Y298927*
X99866Y299177*
X99616Y299677*
Y300677*
X99866Y301177*
X100116Y301427*
X100616Y301677*
X101366*
X101866Y301427*
X102116Y301177*
X103616Y298677D02*
X104866Y301677D01*
X106116Y298677*
X104116Y299927D02*
X105616D01*
X107616Y298677D02*
Y301677D01*
X110116Y298677*
Y301677*
X111616Y298677D02*
Y301677D01*
Y300177D02*
X114116D01*
Y298677D02*
Y301677D01*
X292923Y154413D02*
X290423D01*
X292923Y157413*
X290423*
X286923D02*
X288923D01*
X287173Y155663*
X286923Y155163*
X287173Y154663*
X287673Y154413*
X288423*
X288923Y154663*
X308277Y154413D02*
X305777D01*
X308277Y157413*
X305777*
X303777D02*
X302777D01*
X303277D02*
Y154413D01*
X303777Y154913*
D02*
D85*
X13002Y271699D02*
Y275449D01*
X15189*
X15814Y275137*
X16127Y274512*
X15814Y273887*
X15189Y273574*
X13002*
X15189D02*
X16127Y271699D01*
X18002D02*
X20502Y275449D01*
X18002*
X23314Y272012D02*
X23939Y271699D01*
X24564*
X25189Y272012*
X25502Y272637*
Y274512*
X25189Y275137*
X24564Y275449*
X23939*
X23314Y275137*
X23002Y274512*
Y272637*
X23314Y272012*
X25189Y275137*
X53553Y271306D02*
Y275056D01*
X55740*
X56365Y274743*
X56678Y274118*
X56365Y273493*
X55740Y273181*
X53553*
X55740D02*
X56678Y271306D01*
X58553Y272243D02*
X58865Y272868D01*
X59490Y273181*
X60115*
X60740Y272868*
X61053Y272243*
X60740Y271618*
X60115Y271306*
X59490*
X58865Y271618*
X58553Y272243*
Y273181*
X58865Y274118*
X59490Y274743*
X60115Y275056*
X64490Y271306D02*
X65115Y271618D01*
X65740Y272243*
X66053Y273181*
Y274118*
X65740Y274743*
X65115Y275056*
X64490*
X63865Y274743*
X63553Y274118*
X63865Y273493*
X64490Y273181*
X65115*
X65740Y273493*
X66053Y274118*
X151584Y81148D02*
Y84898D01*
X153772*
X154397Y84586*
X154709Y83961*
X154397Y83336*
X153772Y83023*
X151584*
X153772D02*
X154709Y81148D01*
X157209D02*
X158459D01*
X157834D02*
Y84898D01*
X157209Y84273*
X161584Y82086D02*
X161897Y82711D01*
X162522Y83023*
X163147*
X163772Y82711*
X164084Y82086*
X163772Y81461*
X163147Y81148*
X162522*
X161897Y81461*
X161584Y82086*
Y83023*
X161897Y83961*
X162522Y84586*
X163147Y84898*
X152372Y69731D02*
Y73481D01*
X154559*
X155184Y73169*
X155497Y72543*
X155184Y71919*
X154559Y71606*
X152372*
X154559D02*
X155497Y69731D01*
X157997D02*
X159247D01*
X158622D02*
Y73481D01*
X157997Y72856*
X162372Y69731D02*
X164872Y73481D01*
X162372*
X164576Y339809D02*
Y343559D01*
X166764*
X167389Y343247*
X167702Y342622*
X167389Y341997*
X166764Y341685*
X164576*
X166764D02*
X167702Y339809D01*
X170514Y341685D02*
X171139D01*
X171764Y341997*
X172076Y342622*
X171764Y343247*
X171139Y343559*
X170514*
X169889Y343247*
X169576Y342622*
X169889Y341997*
X170514Y341685*
X169889Y341372*
X169576Y340747*
X169889Y340122*
X170514Y339809*
X171139*
X171764Y340122*
X172076Y340747*
X171764Y341372*
X171139Y341685*
X167726Y305164D02*
Y308914D01*
X169913*
X170539Y308602*
X170851Y307976*
X170539Y307352*
X169913Y307039*
X167726*
X169913D02*
X170851Y305164D01*
X173663D02*
X174289Y305476D01*
X174913Y306102*
X175226Y307039*
Y307976*
X174913Y308602*
X174289Y308914*
X173663*
X173039Y308602*
X172726Y307976*
X173039Y307352*
X173663Y307039*
X174289*
X174913Y307352*
X175226Y307976*
X179143Y82329D02*
Y86079D01*
X181331*
X181956Y85767*
X182269Y85142*
X181956Y84517*
X181331Y84204*
X179143*
X181331D02*
X182269Y82329D01*
X184769D02*
X186019D01*
X185393D02*
Y86079D01*
X184769Y85454*
X190706Y82329D02*
Y86079D01*
X189143Y83579*
X191643*
X179537Y69731D02*
Y73481D01*
X181724*
X182350Y73169*
X182662Y72543*
X182350Y71919*
X181724Y71606*
X179537*
X181724D02*
X182662Y69731D01*
X185162D02*
X186412D01*
X185787D02*
Y73481D01*
X185162Y72856*
X189537Y70043D02*
X190162Y69731D01*
X191100*
X191724Y70043*
X192037Y70669*
Y70981*
X191724Y71606*
X191100Y71919*
X189537*
Y73481*
X192037*
X211427Y304376D02*
Y308126D01*
X213614*
X214239Y307814*
X214552Y307189*
X214239Y306564*
X213614Y306252*
X211427*
X213614D02*
X214552Y304376D01*
X216427D02*
X218927Y308126D01*
X216427*
X220863Y151227D02*
Y153102D01*
X219301Y154977*
X220863Y153102D02*
X222426Y154977D01*
X224926Y151227D02*
X226176D01*
X225551D02*
Y154977D01*
X224926Y154352*
X220876Y346502D02*
Y350252D01*
X223063*
X223688Y349940*
X224001Y349315*
X223688Y348690*
X223063Y348378*
X220876*
X223063D02*
X224001Y346502D01*
X225876Y347440D02*
X226188Y348065D01*
X226813Y348378*
X227438*
X228063Y348065*
X228376Y347440*
X228063Y346815*
X227438Y346502*
X226813*
X226188Y346815*
X225876Y347440*
Y348378*
X226188Y349315*
X226813Y349940*
X227438Y350252*
X237411Y156638D02*
Y158409D01*
X238887Y156638*
Y158409*
X260489Y264463D02*
X256739D01*
Y266650*
X257052Y267275*
X257677Y267588*
X258302Y267275*
X258614Y266650*
Y264463*
Y266650D02*
X260489Y267588D01*
X260177Y269463D02*
X260489Y270088D01*
Y271025*
X260177Y271650*
X259552Y271963*
X259239*
X258614Y271650*
X258302Y271025*
Y269463*
X256739*
Y271963*
X262194Y282593D02*
Y288203D01*
X263080D02*
G75*
G03X265836I1378J213D01*
G01*
Y280919D02*
G75*
G03X263080I-1378J-213D01*
G01*
X266722Y286628D02*
Y282494D01*
X269380Y144140D02*
Y147890D01*
X271567*
X272192Y147578*
X272505Y146953*
X272192Y146328*
X271567Y146015*
X269380*
X271567D02*
X272505Y144140D01*
X275942D02*
Y147890D01*
X274380Y145390*
X276880*
X283856Y253865D02*
Y255740D01*
X282293Y257615*
X283856Y255740D02*
X285418Y257615D01*
X289793Y253865D02*
X287293D01*
X289480Y256052*
X289793Y256677*
X289480Y257302*
X288856Y257615*
X287918*
X287293Y257302*
X287805Y189416D02*
Y193166D01*
X289992*
X290617Y192854*
X290930Y192228*
X290617Y191604*
X289992Y191291*
X287805*
X289992D02*
X290930Y189416D01*
X293117Y189728D02*
X293742Y189416D01*
X294367*
X294992Y189728*
X295305Y190354*
X294992Y190978*
X294367Y191291*
X293742*
X294367D02*
X294992Y191604D01*
X295305Y192228*
X294992Y192854*
X294367Y193166*
X293742*
X293117Y192854*
X288198Y200380D02*
Y204130D01*
X290386*
X291011Y203818*
X291324Y203193*
X291011Y202568*
X290386Y202256*
X288198*
X290386D02*
X291324Y200380D01*
X295698D02*
X293198D01*
X295386Y202568*
X295698Y203193*
X295386Y203818*
X294761Y204130*
X293824*
X293198Y203818*
X293907Y152061D02*
Y149305D01*
X288002*
Y152061*
X293907*
X294891Y329967D02*
Y333717D01*
X297079*
X297704Y333405*
X298017Y332780*
X297704Y332155*
X297079Y331842*
X294891*
X297079D02*
X298017Y329967D01*
X300517D02*
X301767D01*
X301141D02*
Y333717D01*
X300517Y333092*
X305204Y330280D02*
X305829Y329967D01*
X306454*
X307079Y330280*
X307391Y330905*
Y332780*
X307079Y333405*
X306454Y333717*
X305829*
X305204Y333405*
X304891Y332780*
Y330905*
X305204Y330280*
X307079Y333405*
X295679Y320912D02*
Y324662D01*
X297866*
X298491Y324350*
X298804Y323724*
X298491Y323100*
X297866Y322787*
X295679*
X297866D02*
X298804Y320912D01*
X301304D02*
X302554D01*
X301929D02*
Y324662D01*
X301304Y324037*
X306304Y320912D02*
X307554D01*
X306929D02*
Y324662D01*
X306304Y324037*
X302569Y149305D02*
Y152061D01*
X308474*
Y149305*
X302569*
X308671Y305951D02*
Y309701D01*
X310858*
X311483Y309389*
X311796Y308764*
X311483Y308139*
X310858Y307826*
X308671*
X310858D02*
X311796Y305951D01*
X314296D02*
X315546D01*
X314921D02*
Y309701D01*
X314296Y309076*
X321171Y305951D02*
X318671D01*
X320858Y308139*
X321171Y308764*
X320858Y309389*
X320233Y309701*
X319296*
X318671Y309389*
X327569Y268550D02*
Y272300D01*
X329756*
X330381Y271987*
X330694Y271362*
X330381Y270737*
X329756Y270425*
X327569*
X329756D02*
X330694Y268550D01*
X333194D02*
X334444D01*
X333819D02*
Y272300D01*
X333194Y271675*
X338506Y268550D02*
X339131Y268862D01*
X339756Y269487*
X340069Y270425*
Y271362*
X339756Y271987*
X339131Y272300*
X338506*
X337881Y271987*
X337569Y271362*
X337881Y270737*
X338506Y270425*
X339131*
X339756Y270737*
X340069Y271362*
X327962Y280361D02*
Y284111D01*
X330150*
X330775Y283798*
X331087Y283173*
X330775Y282548*
X330150Y282236*
X327962*
X330150D02*
X331087Y280361D01*
X333587D02*
X334837D01*
X334212D02*
Y284111D01*
X333587Y283486*
X338900Y282236D02*
X339525D01*
X340150Y282548*
X340462Y283173*
X340150Y283798*
X339525Y284111*
X338900*
X338275Y283798*
X337962Y283173*
X338275Y282548*
X338900Y282236*
X338275Y281923*
X337962Y281298*
X338275Y280673*
X338900Y280361*
X339525*
X340150Y280673*
X340462Y281298*
X340150Y281923*
X339525Y282236*
X328356Y238628D02*
Y242378D01*
X330543*
X331169Y242066*
X331481Y241441*
X331169Y240816*
X330543Y240504*
X328356*
X330543D02*
X331481Y238628D01*
X333981D02*
X335231D01*
X334606D02*
Y242378D01*
X333981Y241754*
X329931Y312644D02*
Y316394D01*
X332118*
X332743Y316082*
X333056Y315457*
X332743Y314832*
X332118Y314519*
X329931*
X332118D02*
X333056Y312644D01*
X335556D02*
X336806D01*
X336181D02*
Y316394D01*
X335556Y315769*
X340243Y312957D02*
X340868Y312644D01*
X341493*
X342118Y312957*
X342431Y313582*
X342118Y314207*
X341493Y314519*
X340868*
X341493D02*
X342118Y314832D01*
X342431Y315457*
X342118Y316082*
X341493Y316394*
X340868*
X340243Y316082*
X341643Y329226D02*
G75*
G03Y331982I-213J1378D01*
G01*
X343218Y332868D02*
X347352D01*
X347254Y328341D02*
X341643D01*
X348927Y331982D02*
G75*
G03Y329226I213J-1378D01*
G01*
X455521Y89416D02*
Y93166D01*
X457709*
X458334Y92854*
X458646Y92228*
X458334Y91604*
X457709Y91291*
X455521*
X457709D02*
X458646Y89416D01*
X460521D02*
X463021Y93166D01*
X460521*
X468021Y89416D02*
X465521D01*
X467709Y91604*
X468021Y92228*
X467709Y92854*
X467084Y93166*
X466146*
X465521Y92854*
X481506Y89416D02*
Y93166D01*
X483693*
X484318Y92854*
X484631Y92228*
X484318Y91604*
X483693Y91291*
X481506*
X483693D02*
X484631Y89416D01*
X486506D02*
X489006Y93166D01*
X486506*
X492131Y89416D02*
X493381D01*
X492756D02*
Y93166D01*
X492131Y92541*
D02*
D86*
X99320Y203514D02*
G75*
G02X100108I394D01*
G01*
X99320D02*
G75*
G03X100108I394D01*
G01*
X146663Y321352D02*
Y314659D01*
X146722Y343793D02*
Y337100D01*
X151781Y324699D02*
Y314659D01*
X151840Y347140D02*
Y337100D01*
X186230Y318596D02*
X190167D01*
X191545Y318242D02*
X194301D01*
Y306746*
X191545*
Y318242*
X218120Y334738D02*
X228159D01*
X221466Y329620D02*
X228159D01*
X275403Y124305D02*
X305718D01*
X284393Y122262D02*
G75*
G02X283830I-281D01*
G01*
X284393D02*
G75*
G02X283830I-281D01*
G01*
G75*
G02X284393I281*
G01*
X305718Y142809D02*
X275403D01*
X313297Y243128D02*
X314084*
G75*
G02X313297I-394D01*
G01*
X314084D02*
G75*
G03X313297I-394D01*
G01*
X333080Y139128D02*
X345679D01*
Y100033*
X333080*
Y139128*
X336230Y54994D02*
X480521D01*
Y75427*
X330088*
Y60132*
X354734Y305998D02*
X367332D01*
Y286707*
X354734*
Y305998*
X359065Y327024D02*
X362190D01*
X359065Y323274*
X362190*
X366565Y323587D02*
X366252Y323274D01*
X365627*
X365002*
X364377Y323587*
X364065Y324212*
Y325149*
X364377Y325462*
X365002Y325774*
X365627*
X366252Y325462*
X366565Y325149*
Y324837*
X366252Y324524*
X365627Y324212*
X365002*
X364377Y324524*
X364065Y324837*
X369065Y323274D02*
Y325774D01*
Y324837D02*
X369377Y325462D01*
X370002Y325774*
X370627*
X371252Y325462*
X374065Y324212D02*
X374377Y323587D01*
X375002Y323274*
X375627*
X376252Y323587*
X376565Y324212*
Y324837*
X376252Y325462*
X375627Y325774*
X375002*
X374377Y325462*
X374065Y324837*
Y324212*
X384065Y323274D02*
Y327024D01*
X387190*
X386565Y325149D02*
X384065D01*
Y323274D02*
X387190D01*
X389065Y327024D02*
X390627Y323274D01*
X392190Y327024*
X402190Y323899D02*
X401877Y323587D01*
X401252Y323274*
X400315*
X399690Y323587*
X399377Y323899*
X399065Y324524*
Y325774*
X399377Y326399*
X399690Y326712*
X400315Y327024*
X401252*
X401877Y326712*
X402190Y326399*
X404065Y324212D02*
X404377Y323587D01*
X405002Y323274*
X405627*
X406252Y323587*
X406565Y324212*
Y324837*
X406252Y325462*
X405627Y325774*
X405002*
X404377Y325462*
X404065Y324837*
Y324212*
X409065Y323274D02*
Y325774D01*
Y324837D02*
X409377Y325462D01*
X410002Y325774*
X410627*
X411252Y325462*
X411565Y324837*
Y323274*
X414065Y325774D02*
X415315Y323274D01*
X416565Y325774*
X421565Y323587D02*
X421252Y323274D01*
X420627*
X420002*
X419377Y323587*
X419065Y324212*
Y325149*
X419377Y325462*
X420002Y325774*
X420627*
X421252Y325462*
X421565Y325149*
Y324837*
X421252Y324524*
X420627Y324212*
X420002*
X419377Y324524*
X419065Y324837*
X424065Y323274D02*
Y325774D01*
Y324837D02*
X424377Y325462D01*
X425002Y325774*
X425627*
X426252Y325462*
X429065Y323587D02*
X429690Y323274D01*
X430940*
X431565Y323587*
Y324212*
X430940Y324524*
X429690*
X429065Y324837*
Y325462*
X429690Y325774*
X430940*
X431565Y325462*
X435315Y323274D02*
Y325774D01*
Y326712D02*
X439065Y324212*
X439377Y323587D01*
X440002Y323274*
X440627*
X441252Y323587*
X441565Y324212*
Y324837*
X441252Y325462*
X440627Y325774*
X440002*
X439377Y325462*
X439065Y324837*
Y324212*
X444065Y323274D02*
Y325774D01*
Y324837D02*
X444377Y325462D01*
X445002Y325774*
X445627*
X446252Y325462*
X446565Y324837*
Y323274*
X449065Y323587D02*
X449690Y323274D01*
X450940*
X451565Y323587*
Y324212*
X450940Y324524*
X449690*
X449065Y324837*
Y325462*
X449690Y325774*
X450940*
X451565Y325462*
X459065Y327024D02*
Y323274D01*
X462190*
X465627D02*
Y327024D01*
X464065D02*
X467190D01*
X469065Y323274D02*
Y327024D01*
X470940*
X471565Y326712*
X471877Y326399*
X472190Y325774*
Y324524*
X471877Y323899*
X471565Y323587*
X470940Y323274*
X469065*
X408191Y177730D02*
Y146470D01*
X431198D02*
Y180211D01*
X442443Y225762D02*
Y194502D01*
X465450D02*
Y228242D01*
D02*
D87*
X7883Y210132D02*
Y66431D01*
X69301*
Y210132*
X7883*
X170875Y186116D02*
G75*
G03X166151I-2362D01*
G01*
G75*
G03X170875I2362*
G01*
G75*
G03X166151I-2362*
G01*
G75*
G03X170875I2362*
G01*
D02*
D88*
X424919Y279030D02*
Y256982D01*
X518580*
Y318400*
X424919*
Y296352*
X453553Y156569D02*
Y142711D01*
X490167*
X494498Y147041*
Y156569*
X453553Y170781D02*
Y184443D01*
X490561*
X494498Y180506*
Y170781*
X481718Y231116D02*
G75*
G02X486962I2622D01*
G01*
X481718D02*
G75*
G02X486962I2622D01*
G01*
G75*
G02X481718I-2622*
G01*
X505413Y165616D02*
G75*
G02X504598I-407D01*
G01*
X505413D02*
G75*
G02X504598I-407D01*
G01*
G75*
G02X505413I407*
G01*
X513395Y160919D02*
Y158144D01*
X518887Y152652*
X539380*
Y160919*
X513395Y170368D02*
Y173144D01*
X518887Y178636*
X539380*
Y170368*
X531387Y190565D02*
X497372D01*
Y230565*
X531466*
D02*
D89*
X92824Y233435D02*
Y209813D01*
X95383*
Y233435D02*
X92628D01*
X104045Y209813D02*
X106604D01*
Y233435*
X104045*
X149663Y321352D02*
X151781Y319234D01*
X149722Y343793D02*
X151840Y341675D01*
X151781Y321352D02*
Y314659D01*
X146663*
Y321352*
X151781*
X151840Y343793D02*
Y337100D01*
X146722*
Y343793*
X151840*
X221466Y332620D02*
X223584Y334738D01*
X221466D02*
X228159D01*
Y329620*
X221466*
Y334738*
X309360Y236829D02*
X306801D01*
Y213207*
X309360*
X318021D02*
X320777D01*
X320580D02*
Y236829D01*
X318021*
X427261Y177730D02*
X431198Y173793D01*
Y177730D02*
Y146470D01*
X408191*
Y177730*
X431198*
X461513Y225762D02*
X465450Y221825D01*
Y225762D02*
Y194502D01*
X442443*
Y225762*
X465450*
D02*
D90*
X443860Y164049D02*
G75*
G02X441655I-1102D01*
G01*
X443860D02*
G75*
G02X441655I-1102D01*
G01*
G75*
G02X443860I1102*
G01*
D02*
D91*
X240098Y258951D02*
X241348Y257701D01*
Y181461*
X240098Y180211*
X165108*
X162608Y182711*
Y257701*
X163858Y258951*
X240098*
X262883Y285348D02*
X266033D01*
Y283774D02*
X264458Y285348D01*
X262883Y283774*
X266033*
X267805Y292041D02*
Y277081D01*
X261112*
Y292041*
X267805*
X337805Y333951D02*
X352765D01*
Y327258*
X337805*
Y333951*
X344498Y329030D02*
Y332179D01*
X346072D02*
X344498Y330604D01*
X346072Y329030*
Y332179*
D02*
D92*
X32069Y259455D02*
X33319D01*
X32694D02*
Y263205D01*
X32069D02*
X33319D01*
X39257Y260080D02*
X38944Y259768D01*
X38319Y259455*
X37381*
X36757Y259768*
X36444Y260080*
X36131Y260705*
Y261955*
X36444Y262580*
X36757Y262893*
X37381Y263205*
X38319*
X38944Y262893*
X39257Y262580*
X41444Y259768D02*
X42069Y259455D01*
X42694*
X43319Y259768*
X43631Y260393*
X43319Y261018*
X42694Y261330*
X42069*
X42694D02*
X43319Y261643D01*
X43631Y262268*
X43319Y262893*
X42694Y263205*
X42069*
X41444Y262893*
X113281Y171045D02*
X115781D01*
X113906Y169795D02*
X115156Y172295D01*
X113906D02*
X115156Y169795D01*
X113281Y171045D02*
X115781D01*
X113906Y169795D02*
X115156Y172295D01*
X113906D02*
X115156Y169795D01*
X263092Y287907D02*
G75*
G03X262281I-406D01*
G01*
G75*
G03X263092I406*
G01*
X341939Y329238D02*
G75*
G03Y328427J-406D01*
G01*
G75*
G03Y329238J406*
G01*
X428486Y126778D02*
X429736D01*
X429111D02*
Y130528D01*
X428486D02*
X429736D01*
X435674Y127403D02*
X435361Y127091D01*
X434736Y126778*
X433799*
X433174Y127091*
X432861Y127403*
X432549Y128028*
Y129278*
X432861Y129903*
X433174Y130216*
X433799Y130528*
X434736*
X435361Y130216*
X435674Y129903*
X439111Y126778D02*
Y130528D01*
X437549Y128028*
X440049*
D02*
D93*
X264065Y279237D02*
X264377Y279987D01*
X264690Y279237*
X264190Y279549D02*
X264565D01*
X264690Y289598D02*
X264627Y289535D01*
X264502Y289473*
X264315*
X264190Y289535*
X264127Y289598*
X264065Y289723*
Y289973*
X264127Y290098*
X264190Y290161*
X264315Y290223*
X264502*
X264627Y290161*
X264690Y290098*
X340248Y330836D02*
X340311Y330773D01*
X340373Y330648*
Y330461*
X340311Y330336*
X340248Y330273*
X340123Y330211*
X339873*
X339748Y330273*
X339685Y330336*
X339623Y330461*
Y330648*
X339685Y330773*
X339748Y330836*
X350609Y330211D02*
X349859Y330523D01*
X350609Y330836*
X350297Y330336D02*
Y330711D01*
D02*
D94*
X21823Y255427D02*
G75*
G03X21223I-300D01*
G01*
G75*
G03X21823I300*
G01*
X27037Y279069D02*
Y275841D01*
X31423Y237577D02*
X48123D01*
X32037Y279069D02*
Y275841D01*
X46722Y279069D02*
Y275841D01*
X48123Y258277D02*
X31423D01*
X51722Y279069D02*
Y275841D01*
X120481Y135058D02*
X133081D01*
X125581Y169458D02*
G75*
G03X127981I1200D01*
G01*
X133081D02*
X120481D01*
X138198Y191037D02*
Y185132D01*
G75*
G03X139380Y184148I1081J97*
G01*
X145679*
G75*
G03X146860Y185132I98J1083*
G01*
Y191037*
G75*
G03X145679Y192022I-1083J-98*
G01*
X139380*
G75*
G03X138198Y191037I-98J-1083*
G01*
X141581Y147258D02*
X145581D01*
X156269Y63537D02*
X159498D01*
X156269Y68537D02*
X159498D01*
X159891Y74561D02*
X156663D01*
X159891Y79561D02*
X156663D01*
X163395Y328045D02*
Y322140D01*
G75*
G03X164576Y321156I1081J97*
G01*
X170876*
G75*
G03X172057Y322140I98J1083*
G01*
Y328045*
G75*
G03X170876Y329030I-1083J-98*
G01*
X164576*
G75*
G03X163395Y328045I-98J-1083*
G01*
X166899Y333616D02*
X170128D01*
X166899Y338616D02*
X170128D01*
X172883Y309994D02*
X169655D01*
X172883Y314994D02*
X169655D01*
X183435Y75742D02*
X186663D01*
X183435Y80742D02*
X186663D01*
X187057Y63537D02*
X183828D01*
X187057Y68537D02*
X183828D01*
X214931Y309994D02*
X218159D01*
X214931Y314994D02*
X218159D01*
X226427Y339915D02*
X223198D01*
X226427Y344915D02*
X223198D01*
X262470Y269620D02*
Y266392D01*
X267470Y269620D02*
Y266392D01*
X270423Y155762D02*
Y158990D01*
X275423Y155762D02*
Y158990D01*
X289734Y182829D02*
X292962D01*
X289734Y187829D02*
X292962D01*
X289734Y194246D02*
X292962D01*
X289734Y199246D02*
X292962D01*
X313356Y328892D02*
X316584D01*
X313356Y333892D02*
X316584D01*
X313750Y311569D02*
X316978D01*
X313750Y316569D02*
X316978D01*
Y320230D02*
X313750D01*
X316978Y325230D02*
X313750D01*
X330285Y232041D02*
X333513D01*
X330285Y237041D02*
X333513D01*
X331466Y261963D02*
X334694D01*
X331466Y266963D02*
X334694D01*
X331860Y273774D02*
X335088D01*
X331860Y278774D02*
X335088D01*
X344931Y319049D02*
X341702D01*
X344931Y324049D02*
X341702D01*
X409065Y313085D02*
Y307179D01*
G75*
G03X410246Y306195I1081J97*
G01*
X416545*
G75*
G03X417726Y307179I98J1083*
G01*
Y313085*
G75*
G03X416545Y314069I-1083J-98*
G01*
X410246*
G75*
G03X409065Y313085I-98J-1083*
G01*
X417099Y122356D02*
G75*
G03X416499I-300D01*
G01*
G75*
G03X417099I300*
G01*
X426699Y104506D02*
X443399D01*
Y125206D02*
X426699D01*
X461289Y99463D02*
Y102691D01*
X466289Y99463D02*
Y102691D01*
X482549Y99463D02*
Y102691D01*
X487549Y99463D02*
Y102691D01*
D02*
D95*
X116055Y175783D02*
X118105D01*
X117080D02*
Y181933D01*
X116055D02*
X118105D01*
X127843Y176809D02*
X127330Y176296D01*
X126305Y175783*
X124767*
X123743Y176296*
X123230Y176809*
X122717Y177833*
Y179883*
X123230Y180909*
X123743Y181421*
X124767Y181933*
X126305*
X127330Y181421*
X127843Y180909*
X135017Y175783D02*
X130917D01*
X134505Y179371*
X135017Y180396*
X134505Y181421*
X133480Y181933*
X131943*
X130917Y181421*
X201015Y268618D02*
X203065D01*
X202041D02*
Y274768D01*
X201015D02*
X203065D01*
X212803Y269643D02*
X212291Y269131D01*
X211265Y268618*
X209728*
X208703Y269131*
X208191Y269643*
X207678Y270668*
Y272718*
X208191Y273743*
X208703Y274256*
X209728Y274768*
X211265*
X212291Y274256*
X212803Y273743*
X216903Y268618D02*
X218953D01*
X217928D02*
Y274768D01*
X216903Y273743*
D02*
D96*
X114581Y136258D02*
X118881D01*
Y138258*
X114581*
Y136258*
Y141258D02*
X118881D01*
Y143258*
X114581*
Y141258*
Y146258D02*
X118881D01*
Y148258*
X114581*
Y146258*
Y151258D02*
X118881D01*
Y153258*
X114581*
Y151258*
Y156258D02*
X118881D01*
Y158258*
X114581*
Y156258*
Y161258D02*
X118881D01*
Y163258*
X114581*
Y161258*
Y166258D02*
X118881D01*
Y168258*
X114581*
Y166258*
X118881Y169458D02*
Y135058D01*
X134681*
Y169458*
X118881*
X125581D02*
G75*
G03X127981I1200D01*
G01*
X138981Y138258D02*
X134681D01*
Y136258*
X138981*
Y138258*
Y143258D02*
X134681D01*
Y141258*
X138981*
Y143258*
Y148258D02*
X134681D01*
Y146258*
X138981*
Y148258*
Y153258D02*
X134681D01*
Y151258*
X138981*
Y153258*
Y158258D02*
X134681D01*
Y156258*
X138981*
Y158258*
Y163258D02*
X134681D01*
Y161258*
X138981*
Y163258*
Y168258D02*
X134681D01*
Y166258*
X138981*
Y168258*
D02*
D97*
X326946Y144581D02*
G75*
G02X324450I-1248D01*
G01*
X326946D02*
G75*
G02X324450I-1248D01*
G01*
G75*
G02X326946I1248*
G01*
X348600Y311352D02*
G75*
G02X346104I-1248D01*
G01*
X348600D02*
G75*
G02X346104I-1248D01*
G01*
G75*
G02X348600I1248*
G01*
D02*
D98*
X138790Y193685D02*
X138890Y193485D01*
X139090Y193385*
X139490*
X139690Y193485*
X139790Y193685*
X139690Y193885*
X139490Y193985*
X139090*
X138890Y194085*
X138790Y194285*
X138890Y194485*
X139090Y194585*
X139490*
X139690Y194485*
X139790Y194285*
X140390Y193585D02*
X140490Y193485D01*
X140690Y193385*
X140890Y193485*
X140990Y193585*
Y194585*
X141190*
X140990D02*
X140590D01*
X142790Y193385D02*
X141990D01*
X142690Y194085*
X142790Y194285*
X142690Y194485*
X142490Y194585*
X142190*
X141990Y194485*
X163987Y330693D02*
X164087Y330493D01*
X164287Y330393*
X164687*
X164887Y330493*
X164987Y330693*
X164887Y330893*
X164687Y330993*
X164287*
X164087Y331093*
X163987Y331293*
X164087Y331493*
X164287Y331593*
X164687*
X164887Y331493*
X164987Y331293*
X165587Y330593D02*
X165687Y330493D01*
X165887Y330393*
X166087Y330493*
X166187Y330593*
Y331593*
X166387*
X166187D02*
X165787D01*
X167387Y330393D02*
X167787D01*
X167587D02*
Y331593D01*
X167387Y331393*
X409656Y315732D02*
X409756Y315532D01*
X409956Y315432*
X410356*
X410556Y315532*
X410656Y315732*
X410556Y315932*
X410356Y316032*
X409956*
X409756Y316132*
X409656Y316332*
X409756Y316532*
X409956Y316632*
X410356*
X410556Y316532*
X410656Y316332*
X411256Y315632D02*
X411356Y315532D01*
X411556Y315432*
X411756Y315532*
X411856Y315632*
Y316632*
X412056*
X411856D02*
X411456D01*
X412956Y315532D02*
X413156Y315432D01*
X413356*
X413556Y315532*
X413656Y315732*
X413556Y315932*
X413356Y316032*
X413156*
X413356D02*
X413556Y316132D01*
X413656Y316332*
X413556Y316532*
X413356Y316632*
X413156*
X412956Y316532*
X0Y0D02*
M02*
